<svg width="96" height="67" viewBox="0 0 96 67" fill="none" xmlns="http://www.w3.org/2000/svg">
<path fill-rule="evenodd" clip-rule="evenodd" d="M48.4236 0.174713C48.7342 0.319502 48.8159 1.19647 48.936 1.53744C49.3969 2.8448 49.7915 4.17289 50.217 5.54043C50.8405 7.54364 51.615 9.46706 52.2097 11.474C52.3045 11.7939 52.005 11.977 52.0958 12.2405C52.1542 12.4097 52.3116 12.8858 52.4374 13.0354C52.5419 13.0922 52.6463 13.149 52.7506 13.2058C53.1073 13.7401 53.1198 14.5673 53.3199 15.2214C53.5254 15.8932 53.9063 16.6472 54.117 17.3507L54.4586 18.9689C54.7185 19.6432 55.0256 20.3847 55.2272 21.155C55.3078 21.4624 55.1395 21.8806 55.2557 22.1486C56.8518 22.1444 58.6318 21.974 59.9527 22.319C60.3097 22.4121 60.5872 22.2216 60.8352 22.177C61.1389 22.1864 61.4425 22.1958 61.7461 22.2054C62.3769 22.2094 63.0228 22.1143 63.5964 22.2338C63.9813 22.3141 64.4248 22.1957 64.7066 22.1486C65.1997 22.0663 67.713 22.1307 68.0088 22.2906L68.0942 22.5461C68.464 22.5475 68.7899 22.6156 69.0621 22.4893C69.2485 22.4027 69.3581 22.2031 69.6029 22.1486C70.4549 21.9587 71.7328 22.4013 72.535 22.2622C73.2973 22.1299 74.4198 22.177 75.4956 22.177C76.5369 22.177 77.78 22.0833 78.6838 22.2622L79.3101 22.177C79.6537 22.2869 80.7084 22.2872 81.3882 22.177C82.0808 22.1676 82.7735 22.1582 83.4663 22.1486C84.6619 22.158 85.8575 22.1675 87.0531 22.177C88.2771 22.1676 89.5012 22.1582 90.7253 22.1486H93.0596C93.1114 21.7418 92.5771 21.5377 92.6895 20.8995H92.8034C93.0061 21.658 93.8006 22.273 94.3406 22.7164C94.3312 22.7448 94.3215 22.7732 94.3121 22.8016C93.4507 23.0174 93.1899 22.3065 92.4618 22.8016C92.4712 22.8206 92.4808 22.8393 92.4902 22.8584C93.4843 22.8731 94.2606 23.1187 95.1661 23.2274C95.1567 23.2652 95.147 23.3032 95.1376 23.341C94.4146 23.3421 93.4328 23.2101 92.8888 23.2842C92.5264 23.3336 91.9434 23.3995 91.5508 23.341C90.136 23.1301 88.2632 23.0557 86.9677 23.2842C86.1991 23.2465 85.4305 23.2086 84.6619 23.1707C83.3641 23.1281 81.8556 23.1181 80.5342 23.3126C79.1652 23.5142 77.6704 22.9319 76.4919 23.1139C75.688 23.2379 74.3395 23.3895 73.6452 23.2842C72.9657 23.1812 72.032 23.0861 71.3109 23.1423C70.2676 23.2235 68.5491 23.2819 67.1548 23.1139C66.3102 23.012 65.0519 23.2283 64.3366 23.1423L63.8811 23.2274C63.0365 23.2839 62.2576 23.2039 61.4045 23.341H56.5651C55.8435 23.341 53.655 23.4006 53.4053 23.2558C53.1542 22.0555 52.744 20.8197 52.3236 19.7922C52.2476 19.4516 52.1717 19.1109 52.0958 18.7702C51.8206 17.9943 51.5454 17.2183 51.2703 16.4422C51.1849 16.007 51.0995 15.5717 51.0141 15.1363C50.5672 13.8894 49.9688 12.3958 49.6477 11.0481V10.5655C49.4544 9.80207 48.9594 9.05115 48.7368 8.2091C48.5967 7.67991 48.5697 6.54629 48.2813 6.19341H48.2244C48.0536 7.02609 47.8828 7.85886 47.712 8.69173C47.0808 10.6904 46.3586 12.8236 45.7193 14.7956C45.5579 15.4486 45.3966 16.1015 45.2353 16.7545C45.0159 17.3941 44.6156 18.0042 44.3813 18.6283C44.2729 18.9173 44.3614 19.3948 44.2959 19.6219C44.1462 20.1412 43.9179 20.8024 43.7266 21.2969C43.4949 21.8962 43.4468 22.7942 43.0719 23.341H37.4924C36.0966 23.341 34.5361 23.358 33.564 23.1423C33.08 23.1613 32.5961 23.1802 32.1122 23.1991C32.0174 23.18 31.9223 23.1613 31.8275 23.1423C31.0074 23.1701 30.0039 23.2763 29.237 23.1707C28.7246 23.18 28.2122 23.1895 27.6998 23.1991C25.3097 22.8933 23.1443 23.523 20.7539 23.0855C20.2757 22.998 19.718 23.205 19.3306 23.2842C18.412 23.4716 17.1326 23.3708 16.4269 23.2558L15.1175 23.341C13.8653 23.0086 11.8123 23.4551 10.335 23.3126C9.38588 23.2209 8.49202 23.3268 7.77304 23.3126C5.99551 23.2777 3.62064 23.3433 1.48187 23.341C1.46289 23.3032 1.44393 23.2652 1.42494 23.2274C1.99274 23.0304 2.67517 23.0597 3.33221 22.9719C3.59243 22.9373 3.8868 23.0599 3.98695 22.8584C3.39864 22.8393 2.81032 22.8204 2.22201 22.8016V22.7164C2.50668 22.4419 2.79135 22.1675 3.07601 21.8931L3.47455 21.7228C3.66602 21.469 3.56709 21.0068 3.87308 20.8711C3.88256 20.8804 3.89207 20.8901 3.90155 20.8995C3.91701 21.5203 3.68019 21.7185 3.47455 22.0918C3.50302 22.1109 3.53148 22.1296 3.55995 22.1486C4.00901 22.3388 4.52213 22.0779 5.06869 22.177C5.51064 22.2571 5.77629 22.587 6.3497 22.4893C6.35724 22.3391 6.34309 22.3525 6.4351 22.2906C6.79594 22.0782 7.35033 22.3269 7.82997 22.2338C9.13793 21.9797 10.6679 22.2468 11.6161 22.4325C11.6264 22.3158 11.5747 22.3831 11.6445 22.319C11.8408 22.2434 12.0755 22.3891 12.1854 22.3757C12.2518 22.3283 12.3182 22.281 12.3847 22.2338L13.8365 22.1486H15.9145C16.5788 22.158 17.243 22.1675 17.9072 22.177C23.1539 22.1676 28.4013 22.1582 33.6494 22.1486H37.4639C37.8143 22.1745 38.1061 22.4254 38.5456 22.319C38.6786 22.2622 38.8114 22.2054 38.9442 22.1486C39.6818 21.9933 40.7367 22.3752 41.3639 22.0918V22.0634C41.1649 21.0065 42.1006 18.0272 42.5879 17.521C42.4106 17.3814 43.0246 15.5672 43.1573 15.1931C43.6073 13.9235 44.1781 12.5164 44.4667 11.2184C44.5254 10.9541 44.7927 10.6745 44.8368 10.4519C44.9826 9.71519 45.218 8.46773 45.6623 7.98198C45.4853 7.64811 45.912 6.7419 46.0609 6.36375C46.5448 4.87809 47.0288 3.39235 47.5127 1.90651C47.6428 1.56038 47.8469 0.416483 48.1105 0.288273C48.0772 0.692718 48.2004 1.0468 48.139 1.42388L47.9682 1.99168C48.2133 1.95647 48.3818 1.95835 48.5944 1.79295C48.3755 1.33956 48.2608 0.704642 48.4236 0.174713ZM30.0056 16.9248C29.9797 17.1378 29.9242 17.1071 29.9771 17.2939C30.4602 17.2769 31.6422 17.797 31.9983 18.0604C32.1882 18.201 32.2986 18.4434 32.5392 18.5431C32.7828 18.6441 33.4749 18.6606 33.6494 18.8554C33.5819 18.9888 33.5275 19.0828 33.5355 19.2244C33.5546 19.2338 33.5733 19.2435 33.5924 19.2528C34.2065 19.0115 33.7834 19.0521 34.3326 19.2812C34.361 19.2622 34.3895 19.2435 34.418 19.2244C34.451 19.0882 34.496 19.0405 34.5888 18.9689H34.6172C34.5865 19.8493 37.2683 20.5446 37.834 21.0982V21.1266C37.5556 21.2665 37.2231 21.157 37.0369 21.3821C37.056 21.4105 37.0748 21.4389 37.0938 21.4673C37.867 21.5658 38.4671 21.6069 39.3143 21.5808V21.666C39.2858 21.685 39.2573 21.7037 39.2289 21.7228C38.9021 21.9113 35.5706 21.9902 35.0727 21.8363C34.8128 21.756 34.65 21.5047 34.418 21.4105C34.4276 21.5618 34.4365 21.5607 34.3895 21.666C34.1703 21.6217 33.5418 21.3071 33.4216 21.155C33.3362 21.2308 33.2508 21.3065 33.1654 21.3821C32.8238 21.3656 32.5019 21.1876 32.5676 20.8711C31.9502 20.8489 31.4469 20.3478 31.0019 20.1045C29.7764 19.4342 28.5714 18.8273 27.3867 18.1172C27.2443 17.9943 27.102 17.8713 26.9597 17.7482C26.279 17.3501 25.0048 16.9671 24.6538 16.3003C24.3211 16.3556 24.2214 16.3105 24.0276 16.1015C24.0654 15.9973 24.1034 15.8932 24.1414 15.7892C24.1605 15.7799 24.1793 15.7702 24.1984 15.7609C25.1495 16.0831 25.8725 16.6648 26.6465 17.2371C26.9298 17.4464 27.3112 17.4603 27.5859 17.663C28.0505 18.0059 28.5162 18.5192 29.1231 18.7134C29.1422 18.6189 29.161 18.5241 29.1801 18.4295C29.161 18.4202 29.1422 18.4105 29.1231 18.4011C28.7995 18.3972 28.1854 18.0565 27.8991 17.8617C27.8444 17.3958 27.9309 17.431 27.9845 17.01C27.5321 17.0407 27.1253 16.5407 26.7889 16.3287C26.1817 15.9596 25.5744 15.5905 24.967 15.2214L24.5969 15.1363C24.1827 14.887 23.8861 14.4666 23.3444 14.3414C23.4061 14.5216 23.5935 14.5693 23.7429 14.6536C23.6994 14.9742 23.4582 15.4426 23.1166 15.477C22.9649 15.4108 22.8131 15.3446 22.6612 15.2782C22.6233 15.1647 22.5854 15.0511 22.5473 14.9375C20.2275 14.3822 18.3973 12.8355 16.5408 11.7295C14.7529 10.6643 12.8932 9.73308 11.1037 8.63495C10.6387 8.30364 10.1737 7.97242 9.70878 7.6413C8.38046 6.84638 7.05201 6.05146 5.72343 5.25653C5.49569 5.06717 5.26796 4.8779 5.04022 4.68873C3.92148 4.00254 1.32607 3.03217 0.770203 1.96329L0.798669 1.90651L4.32855 3.89381C4.61322 4.01674 4.89789 4.13976 5.18256 4.26288C5.50518 4.49937 5.8278 4.73595 6.15043 4.97263C7.24307 5.62191 8.37776 6.08041 9.45258 6.76121C10.151 7.20352 10.9017 7.74322 11.6161 8.15232C12.0622 8.40783 12.5399 8.47057 13.0109 8.72012C13.1977 8.8192 13.3306 9.06137 13.4949 9.17436C13.9337 9.47615 14.4562 9.56047 14.9182 9.85572C15.2679 10.0792 15.7059 10.4752 16.1138 10.6223C16.3391 10.7035 16.5028 10.5984 16.797 10.679C16.7856 10.7869 16.829 10.7142 16.7685 10.7926C16.7306 10.84 16.6926 10.8871 16.6547 10.9345C16.7116 10.982 16.7685 11.0291 16.8255 11.0765C16.8729 11.0671 16.9204 11.0575 16.9678 11.0481C16.972 10.9184 16.9542 10.9749 16.9963 10.8778C17.3031 10.8849 17.4598 10.8871 17.5371 11.1617C17.3981 11.2284 17.3831 11.2392 17.3948 11.3888C17.6607 11.4921 17.8377 11.6875 18.135 11.7295C18.1729 11.6917 18.2109 11.6537 18.2488 11.6159C18.2393 11.5685 18.2298 11.5214 18.2204 11.474C18.4902 11.5358 18.5477 11.7959 18.7897 11.8714H19.1882L19.6437 12.2405C19.8743 12.3555 20.1447 12.3186 20.27 12.4108C20.8769 12.8583 21.6056 13.4403 22.4619 13.6032C22.559 13.9104 22.7841 14.0677 22.9458 14.313C23.0492 14.2948 23.0321 14.3016 23.0882 14.2562C23.1471 14.2005 23.1175 14.2457 23.1451 14.1426C22.9985 13.8386 23.2348 13.3627 23.4867 13.2058H23.5152C23.4958 13.3355 23.5075 13.3471 23.5436 13.4613C23.6922 13.5382 24.0737 13.654 24.2268 13.5464C24.5653 13.3679 24.805 12.693 25.0239 12.3824H25.1378C25.3314 12.5411 25.692 12.7257 25.9633 12.7799C25.9175 13.1033 25.6912 13.2716 25.6217 13.5464C25.6408 13.6884 25.6598 13.8303 25.6787 13.9723C25.6388 14.1253 25.5796 14.1656 25.5648 14.3981C26.043 14.7399 26.6252 15.1408 27.1305 15.4202C27.4601 15.6024 27.8325 15.6203 28.1268 15.8176C28.5287 16.0873 29.4978 16.8743 30.0056 16.9248ZM67.411 18.3727C67.4204 18.4579 67.4301 18.5431 67.4394 18.6283L67.4964 18.685C67.7264 18.5993 68.598 18.0704 68.7489 17.8901C68.8736 17.7411 68.8696 17.5738 69.0336 17.4643C69.3183 17.3413 69.6029 17.2183 69.8876 17.0952C70.6041 16.6682 71.3872 16.2046 72.0511 15.7041C72.3545 15.7061 72.5492 15.7509 72.5635 16.1015C70.7077 17.2624 68.4107 18.4378 66.3577 19.6503C65.7334 20.0188 64.8151 20.8166 63.9665 20.7575V20.8427C64.0044 20.9185 64.0425 20.994 64.0804 21.0698C64.026 21.1246 63.529 21.2813 63.3972 21.3537C63.3024 21.2495 63.2075 21.1454 63.1125 21.0414C62.9796 21.1359 62.8467 21.2306 62.714 21.3253C62.478 21.3954 62.3681 21.1839 62.2585 21.4105C62.3576 21.4624 62.3351 21.4343 62.3724 21.5524C62.209 21.6583 62.1016 21.7781 61.86 21.8079C61.5078 21.6413 60.7771 21.8148 60.2658 21.8931H58.3301C58.2074 21.8695 58.0616 21.7361 57.9885 21.7228C57.7986 21.6884 57.5376 21.8267 57.3053 21.7228C57.2959 21.6944 57.2862 21.666 57.2768 21.6376C57.3053 21.5998 57.3337 21.5618 57.3622 21.524C57.5805 21.5147 57.7988 21.5052 58.0169 21.4956C58.0554 21.6532 58.0719 21.6867 58.2162 21.666C58.5581 21.7202 59.1883 21.3988 59.4687 21.4389C59.4878 21.5147 59.5066 21.5902 59.5257 21.666C59.9145 21.6367 60.3014 21.526 60.8352 21.524V21.4105C60.5192 21.4091 60.3677 21.346 60.1235 21.2685C60.019 21.3159 59.9146 21.3633 59.8103 21.4105L58.7571 21.0982C58.7761 21.0698 58.7949 21.0414 58.814 21.013C59.0679 20.9594 59.171 20.7365 59.3833 20.6439C59.6586 20.5965 59.9338 20.5492 60.2089 20.502C60.5209 20.3725 60.7446 20.1372 61.1198 20.0194C61.0802 19.8425 61.021 19.8476 61.006 19.7071C61.2451 19.4907 61.9038 19.4496 61.9738 19.0825C61.9041 18.9732 61.8568 18.9147 61.8884 18.7702H61.9169C62.0766 18.8579 62.1127 19.0348 62.2585 19.1393C62.3914 19.0484 62.4686 18.9476 62.657 18.9122C62.7518 18.9973 62.8467 19.0825 62.9417 19.1677H62.9702V18.827C63.2688 18.6984 63.2998 18.7177 63.568 18.6566L64.365 18.0321C64.498 18.013 64.6308 17.9941 64.7636 17.9753C65.1798 17.749 65.6389 17.322 66.13 17.1804C66.2957 17.1324 66.465 17.2738 66.6708 17.2371C66.6427 17.0824 66.6008 17.0784 66.5285 16.9816C66.7315 16.704 67.2467 16.7349 67.5248 16.5274C67.7762 16.3397 68.0455 15.9638 68.3504 15.846C68.4927 15.827 68.6351 15.8081 68.7774 15.7892C69.0928 15.6252 69.4145 15.2044 69.7453 15.0511C70.3229 14.7834 70.6983 14.6281 71.0263 14.1142C70.9372 13.8616 71.0422 13.7542 70.9693 13.518C70.8871 13.2509 70.4871 12.9576 70.5993 12.6663C70.9372 12.7856 71.2939 12.3001 71.6525 12.496C71.7641 12.8551 72.0886 13.5087 72.4211 13.66C72.681 13.5933 72.6625 13.549 72.962 13.5748C73.0189 13.4803 73.0759 13.3856 73.1328 13.2909H73.1897C73.397 13.6554 73.4462 13.7747 73.389 14.2562C73.4365 14.2939 73.4838 14.332 73.5313 14.3697C73.5598 14.3604 73.5883 14.3507 73.6167 14.3414C73.7027 14.1313 73.9364 13.7117 74.1292 13.6032C75.2211 13.2398 76.3564 12.117 77.4882 12.0985C77.4285 11.9552 77.462 11.9183 77.5452 11.7862H77.5736C77.64 11.824 77.7066 11.862 77.7729 11.8998C77.8583 11.7956 77.9437 11.6915 78.0291 11.5875C78.143 11.6253 78.2568 11.6631 78.3707 11.7011C78.3516 11.6159 78.3328 11.5307 78.3138 11.4456L78.4846 11.2752C78.7365 11.3556 78.7533 11.2238 78.94 11.1049C78.9779 11.1239 79.016 11.1426 79.0539 11.1617C79.0103 11.2511 78.999 11.2783 79.0254 11.3888C79.3895 11.3666 79.7772 11.0663 80.0218 10.8778C79.9685 10.7193 79.9956 10.6549 80.0787 10.5087C80.1815 10.6027 80.1917 10.67 80.3634 10.7074C81.2285 10.0408 82.3709 9.63655 83.3809 9.03241C84.6075 8.29853 85.9096 7.53484 87.1385 6.7896C88.0019 6.2976 88.8654 5.8055 89.729 5.31331L89.6436 5.0578L89.9282 5.14297C90.0996 4.96497 90.2841 5.01351 90.526 4.88746C91.5033 4.31029 92.4807 3.73303 93.4581 3.15567C93.439 3.11791 93.4202 3.07987 93.4012 3.04211C93.9355 3.10826 95.157 2.18371 95.6785 1.9349C95.6879 1.97274 95.6976 2.01061 95.707 2.04846C95.5017 2.48283 95.0762 2.59752 94.6822 2.84338C93.5703 3.53752 92.4411 4.2378 91.2946 4.94424C87.9432 7.00678 84.5013 8.97875 81.132 11.0765C80.126 11.7028 77.9733 13.3202 76.8335 13.1774C76.6715 13.3857 76.5958 13.8258 76.4065 13.9723C75.9974 14.2891 75.3353 14.6457 74.8123 14.7956C74.594 14.8146 74.3758 14.8335 74.1576 14.8524C73.8581 15.0011 73.8641 15.632 73.3036 15.4486C73.0756 15.3432 72.8587 14.9986 72.8197 14.7104L73.2182 14.3981V14.3414H73.1043C72.5131 14.9126 71.6135 14.996 70.9124 15.477C70.751 15.6567 70.5897 15.8365 70.4285 16.0164C69.9055 16.4152 69.2061 16.8405 68.4358 16.8113C68.5047 17.1718 68.7378 17.3402 68.5781 17.7482C68.1397 17.8966 67.9385 18.3265 67.411 18.3727ZM10.8475 7.24384C10.8759 7.25321 10.9044 7.26286 10.9328 7.27223V7.3574H10.819C10.8285 7.31964 10.838 7.2816 10.8475 7.24384ZM49.79 9.96928C49.771 9.99767 49.7522 10.0261 49.7331 10.0545C49.7522 10.1396 49.771 10.2248 49.79 10.31L49.847 10.3667C49.8945 10.3574 49.9418 10.3477 49.9893 10.3384V10.31C49.9568 10.1487 49.9201 10.0371 49.79 9.96928ZM46.2886 10.1964C46.3484 10.2909 46.3837 10.289 46.5163 10.31V10.2248C46.4403 10.2154 46.3646 10.2058 46.2886 10.1964ZM46.6017 10.2816C46.6208 10.31 46.6396 10.3384 46.6587 10.3667H46.6872V10.3384C46.6587 10.3193 46.6302 10.3006 46.6017 10.2816ZM49.9893 10.5087C49.9608 10.5465 49.9324 10.5845 49.9039 10.6223C49.9133 10.66 49.923 10.6981 49.9324 10.7358C50.0653 10.7548 50.1982 10.7738 50.3309 10.7926V10.679L49.9893 10.5087ZM17.9072 11.3036H17.9926C18.0898 11.3718 18.117 11.3718 18.135 11.5307C18.116 11.5401 18.097 11.5498 18.078 11.5591C17.9603 11.5781 17.9338 11.5943 17.8503 11.5307C17.7915 11.4751 17.8208 11.5202 17.7933 11.4172L17.8503 11.332C17.8693 11.3226 17.8882 11.313 17.9072 11.3036ZM78.7692 11.4456C78.7977 11.4646 78.8262 11.4833 78.8546 11.5023C78.8034 11.4444 78.8541 11.4822 78.7692 11.4456ZM77.7444 12.0418C77.8162 12.088 77.7493 12.0699 77.8298 12.0418H77.7444ZM19.3875 12.2689C19.3969 12.2879 19.4066 12.3066 19.416 12.3257C19.4254 12.3066 19.435 12.2879 19.4444 12.2689H19.3875ZM72.0795 13.6032C72.028 13.6589 71.9819 13.679 71.9372 13.7452C71.9278 13.7926 71.9181 13.8397 71.9087 13.8871L72.2219 13.8019V13.7168C72.1743 13.679 72.1271 13.641 72.0795 13.6032ZM67.8949 16.6693L67.4394 17.0384V17.1236C67.4679 17.1329 67.4964 17.1426 67.5248 17.152C67.7241 17.0762 67.9234 17.0005 68.1227 16.9248C68.132 16.8774 68.1417 16.8303 68.1511 16.7829C68.1227 16.7451 68.0942 16.7071 68.0657 16.6693H67.8949ZM28.4115 16.7261C28.3708 16.8286 28.35 16.8919 28.4115 17.01C28.4305 17.0384 28.4493 17.0668 28.4684 17.0952C28.6392 17.0858 28.81 17.0764 28.9808 17.0668V17.0384C28.8433 16.8723 28.7144 16.7338 28.4115 16.7261ZM29.6071 17.1804L29.3509 17.3507V17.4359C29.4716 17.4929 29.5433 17.5347 29.6925 17.4643L29.8633 17.2939C29.8442 17.2655 29.8254 17.2371 29.8063 17.2087C29.7873 17.1994 29.7685 17.1897 29.7494 17.1804H29.6071ZM66.7562 17.2655C66.7656 17.2845 66.7753 17.3033 66.7847 17.3223C66.7728 17.2959 66.8075 17.303 66.7562 17.2655ZM31.9698 17.4075H32.0552C32.1215 17.4549 32.1882 17.502 32.2545 17.5494C32.2639 17.6536 32.2736 17.7575 32.283 17.8617C32.2639 17.8711 32.2451 17.8807 32.226 17.8901C32.1406 17.8427 32.0552 17.7954 31.9698 17.7482C31.9507 17.663 31.932 17.5778 31.9129 17.4926C31.932 17.4643 31.9507 17.4359 31.9698 17.4075ZM63.084 19.3096L63.141 19.3664L63.084 19.3096ZM93.0311 20.8143C93.8282 21.5712 94.6252 22.3282 95.4223 23.0855L95.3654 23.1423C94.7346 22.8462 92.9557 21.5564 93.0311 20.8143ZM3.44608 20.8711H3.53148C3.43922 21.6123 1.89996 22.9024 1.1972 23.0855V23.0571L1.22567 22.9719C1.96581 22.2718 2.70595 21.5715 3.44608 20.8711ZM61.3191 21.2117C61.3 21.2592 61.2812 21.3063 61.2622 21.3537C61.3951 21.4105 61.5279 21.4673 61.6607 21.524C61.8053 21.4937 62.0077 21.4005 62.0592 21.2685C61.7418 21.2776 61.5391 21.2989 61.3191 21.2117ZM4.61322 22.83C4.60374 22.8677 4.59423 22.9058 4.58475 22.9435H4.86942V22.83H4.61322ZM5.01176 22.83V22.9435H5.43876V22.83H5.01176ZM4.01542 22.8584C4.05371 22.9549 4.0327 22.9171 4.10082 22.9719H4.15775C4.17674 22.9342 4.1957 22.8961 4.21469 22.8584H4.01542ZM4.24315 22.8584C4.28241 22.9509 4.27188 22.9134 4.32855 22.9719C4.38549 22.9626 4.44242 22.9529 4.49935 22.9435V22.8584H4.24315ZM36.98 40.7157H37.407L37.4354 40.7441C37.3478 41.6679 36.7548 42.4907 36.4676 43.2424C35.582 45.5602 35.0118 47.9078 34.0764 50.198C33.7254 51.0968 33.3743 51.9958 33.0231 52.8951C33.0516 52.9141 33.08 52.9328 33.1085 52.9518L33.1654 52.8951C33.7806 52.6336 34.4601 52.0028 34.9019 51.5323C35.4709 51.4557 36.6267 50.4001 37.1792 49.9993L42.4171 46.2234C42.7249 46.2521 42.8262 46.4207 43.0719 46.4789C43.5216 46.5854 43.7872 46.3287 44.0397 46.2234C44.0207 46.1856 44.0019 46.1476 43.9828 46.1098C43.7115 46.176 43.436 46.1802 43.2142 46.2518C43.0186 46.1445 42.946 46.0488 42.8157 45.8827C42.9936 45.4305 43.0161 45.6905 43.2996 45.4569C43.3782 45.3921 43.3901 45.2161 43.4704 45.1446C43.6793 44.9586 44.0941 44.9248 44.2675 44.8607C44.2769 44.8323 44.2865 44.8039 44.2959 44.7755V44.7471H44.0682C44.0776 44.7281 44.0873 44.7093 44.0967 44.6903C44.1177 44.4496 44.2658 44.3593 44.5521 44.3213V44.3496C44.5331 44.378 44.5143 44.4064 44.4952 44.4348C44.4289 44.4916 44.3625 44.5484 44.2959 44.6052C44.3053 44.6429 44.315 44.681 44.3244 44.7187H44.3529C44.9447 44.2878 45.5861 43.9451 46.1747 43.5263C46.6487 43.1891 47.2277 42.5103 47.8258 42.3623C48.8418 42.1111 50.4351 43.5621 50.9856 43.9522C53.3956 45.7027 55.8058 47.4534 58.2162 49.2043C58.3116 49.1867 58.3987 49.1998 58.3585 49.1192C58.6879 49.419 58.9492 49.6393 59.3549 49.8857L59.2695 50.1412C59.5066 50.2358 59.7438 50.3304 59.9811 50.4251C61.1386 51.2672 62.2963 52.1094 63.4541 52.9518C63.4826 52.9328 63.511 52.9141 63.5395 52.8951V52.8667C63.3658 52.1822 62.9747 51.5318 62.7424 50.9077C62.2673 49.6325 62.029 48.0934 61.2906 47.0751C61.4093 46.84 61.3646 46.635 61.4045 46.3937C61.2883 46.1496 61.0461 46.0281 60.8352 45.8827C60.9134 45.0832 60.4349 44.3559 60.1804 43.7818C60.0392 43.4636 60.0739 43.0826 59.9242 42.7314C59.6672 42.129 59.2336 41.505 59.1556 40.7441H59.2695L59.8388 41.2267C61.427 41.0802 63.2785 41.17 64.9628 41.17C65.4752 41.189 65.9876 41.2079 66.5 41.2267C67.3168 41.0947 68.5764 41.0615 69.3467 41.17H85.1173C87.4883 41.17 89.7378 41.3857 91.6647 41.17C92.1355 41.1172 94.104 41.0825 94.3406 41.2551L94.2836 41.3119C94.018 41.5958 93.7524 41.8797 93.4866 42.1636C93.3536 42.2204 93.2208 42.2772 93.088 42.334C92.9836 42.6556 92.8792 42.9774 92.7749 43.2992V43.2424C92.4285 42.9052 92.8848 42.3916 92.9457 42.0784C92.6232 42.1542 92.3006 42.2299 91.9778 42.3056C91.1916 42.4617 89.7139 42.2658 89.0458 42.192C87.974 42.0733 86.7846 42.2465 85.6582 42.1068C85.2787 42.1259 84.8992 42.1448 84.5195 42.1636L81.559 42.0784C81.056 42.0878 80.5531 42.0973 80.0502 42.1068C77.8555 41.7937 75.2297 41.9365 72.7912 41.9365V42.05C74.3387 42.2357 75.493 43.0289 76.0649 44.2645C76.1028 44.2551 76.1409 44.2455 76.1788 44.2361C76.1807 43.8281 76.5557 43.5891 76.7766 43.3844C76.8429 43.3938 76.9095 43.4034 76.9758 43.4128V43.6115C76.8386 44.0101 76.7293 44.3902 76.378 44.5768V44.6903C76.5488 44.8851 76.823 45.2198 76.862 45.5136L76.5204 45.7691C76.5349 45.9523 76.7982 46.4937 76.8904 46.6208C77.0439 46.6353 77.0672 46.6427 77.1751 46.5925V46.5641C77.1358 46.4156 77.0997 46.4017 77.0897 46.2802C77.1182 46.2611 77.1466 46.2424 77.1751 46.2234C77.6738 46.3117 77.7806 46.8724 78.0291 47.217C78.7112 48.1636 79.3095 49.0371 80.1356 49.8289C80.2538 49.9422 80.2669 50.114 80.4203 50.198C81.2746 50.6661 82.6094 50.2976 83.4663 50.7374C84.6923 51.3668 85.9329 52.2009 87.11 52.9234C88.4417 53.7408 89.8021 54.3835 91.0669 55.2798C92.1486 56.1786 93.2304 57.0777 94.3121 57.9769C94.6734 58.2659 95.6455 59.163 95.7355 59.6519C95.8149 60.0837 95.5413 60.4374 95.3654 60.6455C94.7391 61.3931 94.1128 62.1407 93.4866 62.8884C93.2435 63.2092 93.0172 63.7077 92.6326 63.7968C92.6368 64.3152 92.201 64.5957 92.0063 65.0176H91.8924L92.0632 64.5918C91.8466 64.6636 91.1722 65.6436 91.01 65.8693C90.8366 65.8406 90.6319 65.8316 90.4976 65.8977C90.4793 66.0008 90.4862 65.9837 90.4406 66.0396C89.5994 65.9139 87.6734 63.664 87.1385 63.0019C86.6167 62.4909 86.0948 61.9799 85.5728 61.4688C83.6658 59.3493 81.7585 57.2295 79.851 55.1095C79.1273 54.2132 77.1241 52.65 77.0897 51.5323C76.9949 51.4472 76.9 51.362 76.805 51.2768C76.6115 51.2161 76.4876 51.3322 76.3211 51.22C76.0555 50.9077 75.7898 50.5955 75.524 50.2832C74.9402 49.5484 74.2735 48.8285 73.6737 48.0971C73.3605 47.8606 73.0474 47.6241 72.7343 47.3874C72.2717 47.037 71.8529 46.6174 71.3679 46.2518L71.1117 45.9111C70.7649 45.6556 70.4162 45.4623 70.0869 45.2013C69.9824 45.0594 69.878 44.9174 69.7737 44.7755C69.0433 44.4158 68.3126 44.0562 67.5818 43.6967C67.1804 43.446 66.7548 42.9988 66.3577 42.7882C65.9501 42.5719 65.5586 42.5648 65.2475 42.2772C65.3284 42.186 65.3571 42.2065 65.3898 42.05H64.422C64.2913 42.0043 61.6874 41.9263 61.6607 41.9365V42.05C61.8998 42.3961 61.9391 42.814 62.1162 43.2424C62.8002 44.8967 63.3086 46.649 63.9096 48.4378C64.6645 50.6849 65.5438 52.6884 66.3577 54.9959C66.5948 55.715 66.8321 56.4343 67.0694 57.1536C66.7246 57.0451 66.4121 55.9473 66.13 55.6489L66.073 55.7057C66.1627 55.9629 66.3412 56.2397 66.3008 56.529L65.9876 56.6142C63.72 54.9865 61.4521 53.3589 59.1841 51.7311C58.8556 51.4988 56.9432 49.9294 56.7929 49.9425C56.7835 49.9709 56.7738 49.9993 56.7644 50.0277C57.2227 50.8368 58.2395 51.2848 58.9848 51.8162C60.2049 52.6861 61.4059 53.6315 62.6001 54.5133C63.4168 55.1163 64.4507 55.6861 65.0482 56.5006H64.9628C60.7785 53.4631 56.5939 50.4254 52.409 47.3874C51.5157 46.7483 48.667 44.985 48.3382 44.0657C47.9915 44.1867 47.78 44.7812 47.4842 45.0026C46.6587 45.6082 45.8331 46.2138 45.0076 46.8196C40.425 50.1125 35.8419 53.4058 31.2581 56.6993C31.4728 56.3479 31.8611 56.1894 32.1691 55.9328C32.7467 55.451 33.3271 54.9752 33.934 54.5133C34.3032 54.2322 34.5603 53.8103 34.9588 53.548C37.6154 51.7983 40.074 50.0566 42.6449 48.2107C43.5695 47.5466 44.4121 46.8627 45.2923 46.195C45.7398 45.8555 46.4127 45.5875 46.6587 45.0594C46.2741 45.1167 45.9681 45.5156 45.6908 45.7124C44.9222 46.2705 44.1536 46.8289 43.385 47.3874C41.0573 49.0482 38.742 50.7137 36.4391 52.384C35.7149 52.9098 34.6935 53.2593 34.1333 53.9455C33.4341 54.8014 32.2246 55.4947 31.3151 56.1315C31.0859 56.2919 30.5012 56.8719 30.2049 56.5574C30.2809 56.3396 30.3568 56.122 30.4326 55.9044L30.4041 55.876H30.3757C30.1101 56.2451 29.8444 56.6142 29.5786 56.9832H29.5501V56.8129C30.0642 55.6855 30.2735 54.5377 30.7457 53.3209C30.9803 52.7165 31.37 52.122 31.5997 51.5323C31.7042 51.0971 31.8086 50.6618 31.9129 50.2264C31.9877 49.9834 32.1722 49.6736 32.283 49.4599C32.5201 48.684 32.7573 47.908 32.9946 47.1319C33.0701 46.9138 33.2821 46.6697 33.3647 46.4789C33.677 45.7578 33.8051 44.7752 34.1048 44.009C34.3437 43.3986 34.7607 42.6542 34.9019 41.9649C34.6132 41.842 33.8193 41.9896 33.4216 42.05C32.653 42.0407 31.8844 42.0312 31.1158 42.0217V42.1352C31.2012 42.173 31.2866 42.2108 31.372 42.2488C31.3626 42.2678 31.3529 42.2865 31.3435 42.3056C31.0324 42.2871 30.986 42.3859 30.7742 42.4475C30.5371 42.4381 30.2999 42.4287 30.0625 42.4191L29.0093 42.5895V42.703H29.4363C29.6353 42.6028 29.7226 42.6624 29.9487 42.7314C29.9296 42.826 29.9108 42.9208 29.8917 43.0153C29.4494 43.1996 28.5959 44.0144 28.2691 44.378C27.8077 44.2977 25.9195 45.6678 25.4794 45.9963C25.3205 45.9398 25.3618 45.8912 25.2232 45.9395C25.0757 46.4701 24.5033 46.6396 24.113 46.9331C23.52 47.3792 22.6014 48.2314 22.1772 48.8353C19.3277 52.8916 15.4996 56.081 12.4131 59.9074C11.7963 60.5604 11.1796 61.2133 10.5628 61.8663C9.59935 63.0581 8.46039 64.3462 7.26063 65.3015C6.86662 65.6152 6.45477 66.1339 5.83729 66.1248C5.89423 66.0303 5.95116 65.9356 6.00809 65.8409L5.95116 65.7558C5.20909 65.7645 4.69452 64.9358 4.47089 64.4214C4.44242 64.4308 4.41395 64.4404 4.38549 64.4498C4.37601 64.4688 4.3665 64.4876 4.35702 64.5066C4.39497 64.5727 4.43294 64.6392 4.47089 64.7053C4.11312 64.51 3.96287 64.0137 3.73075 63.6833C2.99061 62.7844 2.25048 61.8854 1.51034 60.9862C1.27629 60.7213 0.697897 60.2464 0.798669 59.7087C0.897364 59.182 1.38927 58.8927 1.70961 58.5731C2.23858 58.0453 3.84103 56.4748 4.55629 56.3019C4.69822 56.2675 4.82866 56.3904 4.98329 56.3586C5.0866 55.3849 6.06315 55.0056 6.80516 54.5133C8.20345 53.5855 9.74906 52.752 11.1891 51.8446C11.5211 51.6354 11.895 51.5795 12.2423 51.362C12.6209 51.1246 13.0673 50.7147 13.5233 50.5671C14.1074 50.378 15.5302 50.6403 15.7722 50.5103C16.1945 50.2835 16.6112 49.733 16.9393 49.3179C17.2866 48.8787 17.758 48.4546 18.078 47.9836C19.2346 46.2813 20.5048 43.4431 22.2057 42.4759C23.0199 42.0129 23.4531 42.1883 24.4261 42.192C25.2149 42.1951 26.3288 42.2198 27.0735 42.05C27.5316 41.9456 28.0525 42.1341 28.4969 42.05V41.9649C28.4778 41.9555 28.459 41.9459 28.4399 41.9365C25.8119 41.9175 23.1834 41.8985 20.5546 41.8797C18.4215 42.2051 16.1684 41.9751 14.0927 42.1068C12.8812 42.1838 11.135 42.0912 9.85111 42.2772L9.45258 42.192C9.29886 42.2161 9.09828 42.3104 8.88324 42.3056L8.17157 42.1352C8.12972 42.1327 7.40314 42.3181 7.34603 42.334C7.06137 42.3246 6.7767 42.3151 6.49203 42.3056C5.45154 42.3152 4.42127 42.341 3.67382 42.1068C3.74706 42.4356 3.99834 42.6951 3.87308 43.1573H3.78768C3.69279 42.8827 3.5979 42.6083 3.50302 42.334C3.31229 42.0097 2.66968 41.7264 2.39281 41.2551L2.42128 41.17H8.20004C9.20517 41.17 10.3633 41.0837 11.2745 41.2267C12.0336 41.2458 12.7927 41.2647 13.5518 41.2835L13.8649 41.4539C14.3845 41.5867 14.8078 41.2534 15.1744 41.17H32.8238C34.3243 41.17 35.654 41.0768 36.6384 41.5674C36.6574 41.539 36.6762 41.5106 36.6953 41.4823C36.7309 41.3284 36.6153 41.2781 36.5814 41.0848C36.7144 40.9619 36.8472 40.8388 36.98 40.7157ZM95.3938 40.8293C95.4223 40.8483 95.4508 40.867 95.4792 40.8861C95.4699 40.9051 95.4602 40.9238 95.4508 40.9428L92.9457 43.2708H92.9172C93.1635 41.947 94.504 41.5382 95.3938 40.8293ZM1.1972 40.8861C2.15178 40.9973 3.45178 42.3447 3.61688 43.2424H3.58842C3.54096 43.195 3.49351 43.1479 3.44608 43.1005L1.16874 40.9428C1.17822 40.9238 1.18773 40.9051 1.1972 40.8861ZM3.78768 41.8229V41.9365H4.52782V41.8229H3.78768ZM4.75555 41.8229V41.9365H5.06869V41.8229H4.75555ZM69.1759 41.8229C69.1588 41.8408 68.5474 42.1193 68.4358 42.1636V42.2772C68.5309 42.3958 68.5388 42.4606 68.7205 42.5043C68.7395 42.4949 68.7583 42.4853 68.7774 42.4759C68.7583 42.4001 68.7395 42.3246 68.7205 42.2488C68.7299 42.2298 68.7395 42.211 68.7489 42.192C68.8152 42.2204 68.8819 42.2488 68.9482 42.2772C69.0336 42.211 69.119 42.1448 69.2044 42.0784C69.3183 42.1162 69.4321 42.1541 69.546 42.192C69.6314 42.1162 69.7168 42.0405 69.8022 41.9649C69.7737 41.9459 69.7453 41.9271 69.7168 41.9081L69.1759 41.8229ZM47.6266 41.8513H47.7404V41.9649C47.3618 42.2499 47.0996 42.5156 46.7726 42.7882H46.7441C46.7156 42.7124 46.6872 42.6369 46.6587 42.5611L47.6266 41.8513ZM48.993 41.9081C49.3687 42.1094 50.543 42.8969 50.644 43.2992C50.625 43.2898 50.6062 43.2802 50.5871 43.2708C50.41 43.3052 48.9423 42.2045 48.993 41.9081ZM28.5823 41.9649V42.05C28.6961 42.0594 28.81 42.0689 28.9239 42.0784V41.9649H28.5823ZM29.0093 41.9649C29.0283 41.9743 29.0471 41.9839 29.0662 41.9933C29.0471 41.9839 29.0283 41.9743 29.0093 41.9649ZM63.6249 42.3056C63.9471 42.3365 64.0488 42.4024 64.2227 42.5611C64.1902 42.755 64.1194 42.7635 64.2227 42.8734C64.4305 43.2918 64.9606 43.3336 65.3044 43.5547C65.4183 43.6873 65.5322 43.8198 65.646 43.9522C65.8413 43.9235 65.8684 43.8463 65.9876 43.7535C66.175 43.8341 66.2103 44.0041 66.3292 44.1509L66.984 44.6335C67.1445 44.9643 67.2547 45.1537 67.5248 45.4285C67.4602 45.5769 67.4747 45.6175 67.5533 45.7408C67.703 45.7484 68.0057 45.8313 68.0373 45.8543C67.9866 45.9929 68.031 46.0343 68.1227 46.1666C68.5408 46.2359 68.7455 46.377 68.9767 46.6208C69.2488 46.5053 69.4888 46.423 69.7453 46.3086V46.4221C69.5819 46.7214 69.2568 46.9882 69.2044 47.359H69.2329L69.3183 47.2738C69.4037 47.2077 69.4891 47.1414 69.5745 47.0751C69.6029 47.0941 69.6314 47.1129 69.6599 47.1319C69.7649 47.8493 70.4828 48.0926 70.9693 48.4378C71.5614 48.8577 72.5492 49.6433 72.962 48.381C73.0927 48.416 73.0827 48.4972 73.1613 48.523C73.3161 48.5741 73.4522 48.4446 73.6167 48.4662C73.5911 48.5451 73.0292 49.3931 72.962 49.4315C72.7499 49.5232 72.2577 49.7412 71.8233 49.6302C71.2013 49.4712 70.7217 48.9221 70.2577 48.5798C69.2565 47.8413 68.3592 47.1177 67.4964 46.2518C67.1531 45.9071 66.1496 45.3623 66.2154 44.7755C65.473 44.696 65.1553 44.0374 64.792 43.6683C64.6258 43.6896 63.5341 42.726 63.4256 42.5043L63.6249 42.3056ZM28.0414 42.703C28.0223 42.6369 28.0035 42.5704 27.9845 42.5043C27.5839 42.4288 27.2233 42.4044 26.8743 42.4475V42.5611C27.3847 42.5656 27.5264 42.6883 28.0414 42.703ZM27.4721 45.3433C27.4815 45.2771 27.4911 45.2107 27.5005 45.1446C27.5859 45.0216 27.6713 44.8986 27.7567 44.7755C28.1809 45.0364 28.2856 45.6522 28.6961 45.9111C28.8385 45.845 28.9808 45.7787 29.1231 45.7124C29.1442 45.2913 29.3674 45.1681 29.5786 44.9458C29.5516 44.7934 29.5325 44.8402 29.5786 44.7187H29.9487C29.9968 44.3076 30.1218 44.3303 30.0625 43.9238H30.1764L30.2333 43.9806C30.2666 44.1929 30.165 44.2523 30.2049 44.378H30.2333C30.3093 44.3687 30.3851 44.359 30.4611 44.3496L30.5465 43.9238C30.6888 43.9712 30.8311 44.0185 30.9735 44.0657C31.3595 43.4295 32.4247 42.5934 33.1654 42.3907V42.4191L33.1085 42.4759C32.8967 42.9693 31.3105 44.248 30.8311 44.6335L28.6392 46.7344C27.6093 47.5628 26.5514 48.4313 25.5363 49.2043C25.0962 49.5393 23.9129 49.9655 23.4582 49.3179C23.3822 49.1382 23.3063 48.9584 23.2305 48.7785C23.1383 48.63 22.9962 48.6541 22.9458 48.4378H23.1451C23.2399 48.4852 23.3348 48.5325 23.4298 48.5798C23.4941 48.4949 23.5069 48.4739 23.629 48.4378C24.2101 49.4008 24.7689 49.0544 25.4794 48.5514C26.1059 48.1079 26.6724 47.8652 26.9312 47.0467C26.9787 47.0561 27.026 47.0657 27.0735 47.0751C27.1296 47.2011 27.1706 47.2803 27.2728 47.359C27.3013 47.3496 27.3297 47.34 27.3582 47.3306V47.3022C27.1683 47.0183 26.9785 46.7344 26.7889 46.4505V46.4221C26.9315 46.4255 26.9047 46.4474 26.9881 46.3937C26.9406 46.356 26.8933 46.3179 26.8458 46.2802C26.8267 46.3179 26.8079 46.356 26.7889 46.3937C26.7795 46.3747 26.7698 46.356 26.7604 46.3369C26.6613 46.2646 26.6423 46.2345 26.6181 46.0814C26.8865 46.13 27.1845 46.2697 27.3582 46.4221C27.5472 46.3651 27.6238 46.3208 27.8137 46.2802C27.9227 46.0917 28.102 45.8486 28.0129 45.6272C27.7732 45.596 27.7843 45.4614 27.6429 45.3433H27.4721ZM70.2861 42.4191C70.1247 42.4853 69.9634 42.5515 69.8022 42.6179H69.7453C69.7547 42.6556 69.7643 42.6937 69.7737 42.7314C70.0205 42.6462 70.2672 42.5611 70.5139 42.4759C70.5045 42.4569 70.4948 42.4381 70.4854 42.4191H70.2861ZM28.1268 42.6179C28.1459 42.6556 28.1647 42.6937 28.1837 42.7314C28.2313 42.7408 28.2785 42.7504 28.3261 42.7598C28.3355 42.7408 28.3451 42.722 28.3545 42.703C28.3355 42.6746 28.3167 42.6462 28.2976 42.6179H28.1268ZM28.6677 42.6462C28.6583 42.684 28.6486 42.722 28.6392 42.7598H28.81C28.7636 42.6357 28.8089 42.6763 28.6677 42.6462ZM30.0625 42.6462H30.1479C30.1385 42.6746 30.1289 42.703 30.1195 42.7314H30.0056C30.0247 42.703 30.0435 42.6746 30.0625 42.6462ZM69.4606 42.6746C69.5164 42.7805 69.4483 42.7212 69.5745 42.7598V42.6746H69.4606ZM68.6066 42.703V42.8166C68.8184 42.8816 68.9898 42.8856 69.2613 42.845C69.2519 42.8072 69.2422 42.7692 69.2329 42.7314C69.0242 42.722 68.8154 42.7126 68.6066 42.703ZM46.431 42.7314C46.4594 42.7504 46.4879 42.7692 46.5163 42.7882C46.2895 43.1726 45.2288 43.9945 44.8083 44.2361C44.7705 44.1887 44.7323 44.1415 44.6945 44.0941C45.013 43.5834 45.9447 43.1346 46.431 42.7314ZM50.701 43.2992C50.7579 43.3086 50.8148 43.3182 50.8718 43.3276C50.8812 43.3654 50.8908 43.4034 50.9002 43.4412C50.8248 43.496 50.8294 43.4894 50.7294 43.4696C50.72 43.4128 50.7104 43.356 50.701 43.2992ZM19.6152 43.356C19.9087 43.3898 20.3277 43.8023 20.4408 44.0374C20.4063 44.1821 20.2899 44.4297 20.1276 44.4632C19.8384 44.3221 19.5025 43.7759 19.6152 43.356ZM51.1564 43.6115C51.2672 43.6439 51.272 43.6371 51.3272 43.7251C51.3463 43.7818 51.3651 43.8386 51.3842 43.8954C51.3651 43.9048 51.3463 43.9144 51.3272 43.9238C51.2797 43.9048 51.2324 43.886 51.1849 43.867V43.8102C51.1755 43.7441 51.1658 43.6777 51.1564 43.6115ZM47.8543 44.1225C47.8449 44.1509 47.8352 44.1793 47.8258 44.2077L47.9112 44.1225H47.8543ZM48.7083 44.1509C48.9676 44.6497 49.7778 44.9387 50.1886 45.3149C51.3637 46.3906 52.7284 47.2304 54.0031 48.2107C54.3584 48.4838 55.3627 49.3517 55.8535 49.2895C55.8629 49.2518 55.8725 49.2137 55.8819 49.176C55.6733 49.0718 55.4645 48.9677 55.2557 48.8637C54.6675 48.4472 54.0792 48.0308 53.4907 47.6145C51.9934 46.5223 50.3332 45.0304 48.7083 44.1509ZM47.7689 44.2077C47.4498 44.4499 47.0051 44.6211 46.801 44.9742H46.8295C47.0279 44.8888 47.8324 44.384 47.7689 44.2077ZM52.0389 44.3213C52.0768 44.3306 52.1149 44.3403 52.1528 44.3496C52.1434 44.378 52.1337 44.4064 52.1243 44.4348C52.0864 44.4158 52.0483 44.3971 52.0104 44.378C52.0198 44.359 52.0295 44.3403 52.0389 44.3213ZM28.81 44.4632C28.8575 44.4916 28.9048 44.52 28.9523 44.5484C28.9617 44.5958 28.9714 44.6429 28.9808 44.6903C28.9429 44.7187 28.9048 44.7471 28.8669 44.7755C28.8479 44.7661 28.8291 44.7565 28.81 44.7471V44.4632ZM52.4374 44.6903H52.5228L52.5798 44.7471V44.8039C52.5607 44.8133 52.5419 44.8229 52.5228 44.8323C52.4374 44.7622 52.4497 44.769 52.4374 44.6903ZM46.7156 44.9458V45.031L46.7726 44.9742C46.7535 44.9649 46.7347 44.9552 46.7156 44.9458ZM43.7266 45.2581C43.6603 45.2771 43.5937 45.2959 43.5273 45.3149C43.5464 45.3527 43.5652 45.3907 43.5843 45.4285C43.7286 45.408 43.8729 45.3978 43.9543 45.3149C43.9449 45.2959 43.9353 45.2771 43.9259 45.2581H43.7266ZM68.4073 45.3149C68.4358 45.3339 68.4643 45.3527 68.4927 45.3717C68.4102 45.3566 68.3532 45.3941 68.4073 45.3149ZM68.1796 45.542H68.2934V45.7408H68.265C68.2174 45.7314 68.1702 45.7217 68.1227 45.7124V45.684C68.1417 45.6366 68.1605 45.5894 68.1796 45.542ZM42.1609 46.0247H42.2463C42.2369 46.0721 42.2273 46.1192 42.2179 46.1666C42.1988 46.176 42.18 46.1856 42.1609 46.195L42.104 46.1382C42.1231 46.1005 42.1419 46.0624 42.1609 46.0247ZM69.8876 46.0814C69.9249 46.1587 69.9001 46.1359 69.8591 46.195C69.8685 46.1572 69.8782 46.1192 69.8876 46.0814ZM28.1553 46.1382C28.1459 46.1572 28.1362 46.176 28.1268 46.195C28.2042 46.2322 28.1815 46.2075 28.2407 46.1666V46.1382H28.1553ZM41.8478 46.3086H41.9047C41.8549 46.3364 41.8985 46.3344 41.8478 46.3086ZM41.4493 46.5357H41.5347V46.6208C41.4777 46.6399 41.4208 46.6586 41.3639 46.6776V46.6492C41.3733 46.6208 41.3829 46.5925 41.3923 46.5641C41.4114 46.5547 41.4302 46.545 41.4493 46.5357ZM41.1361 46.7628H41.2215C41.1825 46.8644 41.1413 46.9365 41.0507 46.9899C40.9522 46.9848 41.0006 47.043 40.9369 46.9331C41.0033 46.8764 41.0697 46.8196 41.1361 46.7628ZM40.8515 47.0467C40.8324 47.1129 40.8136 47.1793 40.7945 47.2454C40.6015 47.3085 40.556 47.4161 40.4245 47.5293C40.3112 47.5032 40.3294 47.4987 40.2252 47.5009C40.2346 47.4632 40.2443 47.4251 40.2537 47.3874C40.4874 47.2846 40.5967 47.0879 40.8515 47.0467ZM40.0829 47.4442C40.1207 47.4632 40.1589 47.4819 40.1967 47.5009V47.6429C40.1683 47.6619 40.1398 47.6807 40.1113 47.6997C40.0922 47.6903 40.0735 47.6807 40.0544 47.6713C40.0638 47.5955 40.0735 47.52 40.0829 47.4442ZM72.2503 47.7281C72.3235 47.7925 72.3303 47.8467 72.3357 47.9836C72.2979 47.9742 72.2597 47.9646 72.2219 47.9552C72.2313 47.8794 72.2409 47.8039 72.2503 47.7281ZM24.2553 47.7848C24.3231 47.8399 24.7979 48.4713 24.8816 48.5798C24.8591 48.7529 24.8295 48.7657 24.7108 48.8353C24.368 48.7796 24.0233 48.4654 23.9422 48.1539C23.9613 48.1633 23.98 48.1729 23.9991 48.1823C24.0654 48.2013 24.1321 48.2201 24.1984 48.2391C24.2175 48.0878 24.2364 47.9364 24.2553 47.7848ZM39.7413 47.8416C39.7791 47.851 39.8173 47.8606 39.8551 47.87L39.7697 47.9552L39.7128 47.8984C39.7222 47.8794 39.7319 47.8606 39.7413 47.8416ZM72.535 47.8984H72.6204C72.6489 47.9458 72.6773 47.9929 72.7058 48.0404C72.5507 48.4001 72.307 48.8018 71.8233 48.8353C71.7855 48.8069 71.7473 48.7785 71.7095 48.7501C71.7001 48.6933 71.6904 48.6365 71.681 48.5798C71.8612 48.4094 72.0415 48.2391 72.2219 48.0687C72.2694 48.1539 72.3169 48.2391 72.3642 48.3243C72.3736 48.3052 72.3833 48.2865 72.3927 48.2675C72.463 48.2246 72.4883 48.1891 72.535 48.1255V47.8984ZM24.2268 48.2959C24.2641 48.4225 24.2727 48.4313 24.3692 48.4946H24.3976C24.407 48.4756 24.4167 48.4568 24.4261 48.4378C24.407 48.4094 24.3883 48.381 24.3692 48.3526C24.3216 48.3336 24.2744 48.3149 24.2268 48.2959ZM39.0865 48.2959H39.2573V48.3243L39.2004 48.381C39.0968 48.5241 38.7159 48.7842 38.5456 48.7501C38.5741 48.7407 38.6026 48.7311 38.631 48.7217C38.731 48.5182 38.9026 48.4174 39.0865 48.2959ZM38.3179 48.8921H38.4033C38.3552 49.0374 38.2943 49.0286 38.204 49.1192C38.1662 49.1098 38.128 49.1002 38.0902 49.0908C38.1488 49.028 38.1295 49.0374 38.2325 49.0056C38.261 48.9679 38.2894 48.9298 38.3179 48.8921ZM56.1381 49.1192C56.1097 49.1569 56.0812 49.195 56.0527 49.2327C56.0906 49.3085 56.1287 49.3841 56.1666 49.4599C56.3434 49.5527 56.5882 49.8783 56.7644 49.7721C56.8228 49.7335 56.8102 49.7403 56.8498 49.687C56.7795 49.3997 56.3881 49.2177 56.1381 49.1192ZM37.6632 49.3463H37.7486C37.7392 49.3841 37.7295 49.4221 37.7201 49.4599C37.6822 49.4789 37.6441 49.4976 37.6062 49.5166H37.5778V49.4031C37.6062 49.3841 37.6347 49.3653 37.6632 49.3463ZM37.2931 49.6018H37.4354C37.403 49.7159 37.3964 49.7105 37.3216 49.7721H37.2362V49.687C37.2552 49.6586 37.274 49.6302 37.2931 49.6018ZM36.6953 49.9993C36.7642 50.0535 36.7414 50.0174 36.7807 50.1128L36.6953 50.198L36.6099 50.1128C36.6384 50.0751 36.6668 50.037 36.6953 49.9993ZM36.3822 50.3116H36.4391C36.4297 50.3493 36.42 50.3874 36.4106 50.4251L36.1544 50.5955H36.069C36.1069 50.5387 36.145 50.4819 36.1829 50.4251C36.2492 50.3874 36.3158 50.3493 36.3822 50.3116ZM35.7274 50.7942H35.8128V50.8226C35.7653 50.8794 35.718 50.9361 35.6705 50.9929C35.6514 50.9836 35.6326 50.9739 35.6136 50.9645C35.623 50.9361 35.6326 50.9077 35.642 50.8794C35.7189 50.8339 35.6813 50.8697 35.7274 50.7942ZM65.9307 55.1946C65.9498 55.204 65.9686 55.2137 65.9876 55.223C65.9686 55.2137 65.9498 55.204 65.9307 55.1946ZM66.0161 55.4218L66.073 55.4785C66.0335 55.424 66.0702 55.4615 66.0161 55.4218ZM29.3793 57.4091H29.4647C29.4553 57.4752 29.4457 57.5417 29.4363 57.6078H29.3224C29.313 57.5888 29.3033 57.57 29.2939 57.551C29.3224 57.5036 29.3509 57.4565 29.3793 57.4091ZM67.1263 57.693H67.2117V57.8349L67.1263 57.9201H67.0978C67.0788 57.9107 67.06 57.9011 67.0409 57.8917C67.0694 57.8256 67.0978 57.7591 67.1263 57.693ZM4.58475 64.9608C4.69444 65.006 4.69899 65.042 4.75555 65.1312C4.6336 65.0866 4.64285 65.0576 4.58475 64.9608ZM10.4705 32.3892C11.201 32.3892 11.573 32.7138 11.5864 33.363H12.3636V30.2426H11.5864C11.573 30.9583 11.201 31.3161 10.4705 31.3161H7.22223V26.1087H10.3111C12.1576 26.1087 13.081 26.9965 13.0811 28.772H13.9978V25.0356H3.69494V25.6914C4.67799 25.7181 5.16952 26.0958 5.16952 26.8245V37.3577C5.16952 38.0865 4.67799 38.4642 3.69494 38.4908V39.1466H14.6355V35.4102H13.7189C13.7189 37.1857 12.8221 38.0734 11.0286 38.0732H8.15885C7.53423 38.0732 7.22204 37.8016 7.22229 37.2584V32.3892H10.4705ZM26.5725 39.1466H27.3696V26.8245C27.3696 26.0823 27.7283 25.7047 28.4456 25.6914V25.0356H24.1212V25.6914C25.4233 25.7181 26.0743 26.0958 26.0743 26.8245V35.1916L17.7244 25.0356H15.8911V25.6914C16.5419 25.7047 16.8673 26.4069 16.8675 27.7982V37.3577C16.8675 38.0999 16.5421 38.4775 15.8911 38.4908V39.1466H20.2153V38.4908C18.8603 38.4643 18.1828 38.0866 18.1828 37.3577V29.3881L26.5725 39.1466ZM34.6036 38.0732C33.8065 38.0732 33.408 37.8148 33.408 37.2981V26.8245C33.408 26.0823 33.9261 25.7047 34.9622 25.6914V25.0356H29.9006V25.6914C30.8701 25.7047 31.355 26.0823 31.3552 26.8245V37.3577C31.3552 38.0999 30.8703 38.4775 29.9006 38.4908V39.1466H39.4062V35.4897H38.4896C38.4896 37.2121 37.5861 38.0733 35.7792 38.0732H34.6036ZM44.0893 26.8245C44.0893 26.0957 44.6008 25.718 45.6239 25.6914V25.0356H40.5619V25.6914C41.5452 25.7181 42.0368 26.0958 42.0368 26.8245V37.3577C42.0368 38.0865 41.5452 38.4642 40.5619 38.4908V39.1466H45.6239V38.4908C44.6005 38.4643 44.089 38.0866 44.0893 37.3577V26.8245ZM51.941 32.886C53.4025 33.6942 54.1664 34.6548 54.2328 35.7679C54.2061 36.6821 53.9736 37.3312 53.5354 37.7155C53.07 38.1262 52.3459 38.3315 51.3631 38.3315C50.5393 38.3315 49.8551 38.0798 49.3106 37.5763C48.7524 37.0729 48.3471 35.9268 48.0948 34.138H47.0985V37.636C48.0948 38.7361 49.5629 39.286 51.5026 39.2857C53.1633 39.2857 54.4188 38.9146 55.269 38.1725C56.0927 37.4306 56.5045 36.4767 56.5045 35.3108C56.4115 33.9592 55.827 32.8594 54.7509 32.0116C54.0336 31.4685 53.0172 30.8457 51.7019 30.1433C50.3201 29.4014 49.6094 28.6992 49.5697 28.0367C49.5697 27.4405 49.7623 26.9305 50.1476 26.5065C50.5194 26.0958 51.1172 25.8903 51.941 25.8901C52.5786 25.8901 53.13 26.0956 53.5952 26.5065C54.0467 26.9172 54.4054 27.6658 54.6712 28.7521H55.3487V26.1286C54.4452 25.3073 53.2761 24.8966 51.8414 24.8965C50.3933 24.8965 49.284 25.241 48.5133 25.9299C47.7293 26.6325 47.3374 27.4673 47.3376 28.4342C47.4173 29.4808 47.9221 30.3487 48.8521 31.0378C49.4766 31.4884 50.5063 32.1044 51.941 32.886ZM57.6207 25.0356V28.772H58.5373C58.5373 26.9968 59.1315 26.109 60.3199 26.1087H61.7857V37.3577C61.7857 38.0999 61.3007 38.4775 60.3307 38.4908V39.1466H65.2931V38.4908C64.3229 38.4777 63.8379 38.1 63.8381 37.3577V26.1087H65.3218C66.5248 26.1087 67.1263 26.9965 67.1263 28.772H68.0429V25.0356H57.6207ZM75.6755 32.3892C76.4059 32.3892 76.7779 32.7138 76.7914 33.363H77.5688V30.2426H76.7914C76.7781 30.9583 76.4061 31.3161 75.6755 31.3161H72.4271V26.1087H75.5161C77.3627 26.1087 78.2861 26.9965 78.2862 28.772H79.2028V25.0356H68.8998V25.6914C69.883 25.7181 70.3747 26.0958 70.3747 26.8245V37.3577C70.3747 38.0865 69.883 38.4642 68.8998 38.4908V39.1466H79.8404V35.4102H78.9238C78.9238 37.1857 78.027 38.0734 76.2334 38.0732H73.364C72.7391 38.0732 72.4268 37.8016 72.4271 37.2584V32.3892H75.6755ZM85.7593 38.1924C84.8688 38.1924 84.4237 37.8883 84.4239 37.28V25.91H86.098C87.5593 25.91 88.7085 26.5054 89.5456 27.696C90.409 28.913 90.8408 30.421 90.8409 32.22C90.8409 33.9268 90.4091 35.3489 89.5456 36.4862C88.695 37.6107 87.5458 38.1794 86.098 38.1924H85.7593ZM80.9168 25.0356V25.6914C81.8863 25.7047 82.3712 26.0823 82.3714 26.8245V37.3577C82.3714 38.0999 81.8865 38.4775 80.9168 38.4908V39.1466H86.1976C88.4425 39.0938 90.1497 38.4445 91.3191 37.1988C92.4749 35.9666 93.0528 34.2906 93.053 32.1706C93.053 29.9315 92.4751 28.1958 91.3191 26.9636C90.1634 25.7445 88.4562 25.1018 86.1976 25.0356H80.9168Z" fill="white"/>
</svg>
