<svg height="2500" viewBox="-.82 -1.11 602.78 801.18" width="1881" xmlns="http://www.w3.org/2000/svg"><path d="m284.46 1.33c4.39-2.44 10.89-.62 12.4 4.45 1.63 4.18-1.19 8.01-3.5 11.25-16.33 23.14-27.17 50.02-32.29 77.84-3.1 1.32-4 4.58-3.04 7.65 1.53.55 3.07 1.05 4.63 1.52 31.7-2.78 63.86-2.2 95.07 4.46 56.79 11.42 109.86 40.14 150.66 81.19 40.67 40.64 69.22 93.29 80.77 149.61 12.8 60.99 5.65 125.92-19.97 182.72-54.31 115.99-145.87 214.11-257.9 276.3-3.61 1.68-8.82 1.75-11.29-1.85-2.92-3.76-1.72-9.12 1.17-12.54 15.11-21.07 25.66-45.29 31.39-70.55 1.1-5.24 2.61-10.54 2.16-15.94-1.85-2.4-4.91-1.67-7.5-1.59-54.38 5.44-110.34-4.27-159.47-28.27-52.64-25.34-97.3-66.77-126.83-117.13-27.36-46.33-41.74-100.29-40.74-154.11.19-49.39 13.67-98.38 37.42-141.62 55.28-106.06 142.07-195.57 246.86-253.39zm-3.05 283.44c-32.35 4.34-62.19 23.33-80.3 50.38-12.26 18.58-19.69 40.65-19.54 62.99-.92 29.94 11.02 59.92 31.72 81.48 18.08 19.46 43.2 32.14 69.54 35.53 26.82 3.55 54.82-2.73 77.53-17.46 23.09-14.64 40.68-37.76 48.55-63.95 14.77-45.46-2.94-98.72-41.47-126.81-24.21-18.41-55.94-26.58-86.03-22.16z" fill="#f15a23"/></svg>
