<?xml version="1.0" encoding="UTF-8" standalone="no"?><!-- Generator: Gravit.io --><svg xmlns="http://www.w3.org/2000/svg" xmlns:xlink="http://www.w3.org/1999/xlink" style="isolation:isolate" viewBox="0 0 512 512" width="512pt" height="512pt"><defs><clipPath id="_clipPath_xxHnjncTkWQoCjB0cSfD5GFLrUW5Q3Fr"><rect width="512" height="512"/></clipPath></defs><g clip-path="url(#_clipPath_xxHnjncTkWQoCjB0cSfD5GFLrUW5Q3Fr)"><g><g><clipPath id="_clipPath_9HFnpp6MO6zAOD8x1T9U9Ys3pbyUjHbk"><path d=" M -62 -23.447 L 574 -23.447 L 574 535.447 L -62 535.447 L -62 -23.447 Z " fill="rgb(255,255,255)"/></clipPath><g clip-path="url(#_clipPath_9HFnpp6MO6zAOD8x1T9U9Ys3pbyUjHbk)"><g><g><path d=" M 397.217 57.078 L 116.516 57.078 C 93.764 57.078 85.367 65.475 85.367 88.237 L 85.367 362.902 C 85.367 365.477 85.471 367.87 85.699 370.087 C 86.217 375.056 86.314 379.87 90.935 385.352 C 91.387 385.889 96.105 389.399 96.105 389.399 C 98.642 390.644 100.375 391.56 103.237 392.712 L 241.458 450.622 C 248.634 453.912 251.634 455.194 256.846 455.09 L 256.846 455.091 C 256.853 455.091 256.859 455.091 256.866 455.091 C 256.873 455.091 256.88 455.091 256.887 455.091 L 256.887 455.09 C 262.098 455.194 265.099 453.912 272.275 450.622 L 410.496 392.712 C 413.358 391.56 415.09 390.644 417.629 389.399 C 417.629 389.399 422.346 385.889 422.797 385.352 C 427.418 379.87 427.516 375.056 428.034 370.087 C 428.261 367.87 428.366 365.477 428.366 362.902 L 428.366 88.237 C 428.366 65.475 419.968 57.078 397.217 57.078 Z " fill-rule="evenodd" fill="rgb(47,45,46)"/></g><g><path d=" M 378.416 333.217 L 378.352 333.851 L 378.29 334.547 L 378.162 335.181 L 377.973 335.814 L 377.85 336.384 L 377.659 337.018 L 377.406 337.589 L 377.153 338.096 L 376.903 338.666 L 376.587 339.172 L 376.27 339.68 L 375.893 340.186 L 375.576 340.693 L 375.2 341.136 L 374.756 341.58 L 374.38 341.96 L 373.874 342.404 L 373.433 342.784 L 372.927 343.164 L 372.424 343.476 L 371.92 343.857 L 371.35 344.173 L 370.783 344.427 L 370.217 344.744 L 369.583 344.997 L 368.954 345.251 L 368.324 345.44 L 367.695 345.631 L 367.124 345.821 L 366.495 345.948 L 365.928 346.074 L 365.362 346.201 L 364.728 346.328 L 364.098 346.391 L 363.532 346.454 L 362.898 346.518 L 362.205 346.582 L 361.575 346.644 L 360.945 346.644 L 360.252 346.644 L 359.555 346.644 L 358.926 346.644 L 358.295 346.582 L 357.603 346.582 L 356.972 346.518 L 356.339 346.454 L 355.646 346.391 L 355.016 346.264 L 354.387 346.201 L 353.753 346.074 L 353.122 345.948 L 352.493 345.821 L 351.863 345.694 L 351.23 345.505 L 350.663 345.377 L 350.034 345.187 L 349.403 344.997 L 348.834 344.744 L 348.204 344.553 L 347.637 344.364 L 347.007 344.11 L 346.437 343.857 L 345.871 343.603 L 345.304 343.291 L 344.734 343.037 L 344.167 342.72 L 343.664 342.404 L 343.094 342.086 L 342.591 341.77 L 342.084 341.453 L 341.581 341.073 L 341.078 340.693 L 340.571 340.313 L 340.067 339.933 L 339.624 339.552 L 339.121 339.109 L 339.501 338.603 L 339.941 338.159 L 340.321 337.651 L 340.761 337.145 L 341.142 336.702 L 341.517 336.195 L 341.961 335.688 L 342.337 335.245 L 342.781 334.738 L 343.158 334.294 L 343.601 333.787 L 343.977 333.28 L 344.358 332.837 L 344.797 332.33 L 345.177 331.823 L 345.617 331.38 L 345.997 330.873 L 346.5 331.253 L 347.067 331.633 L 347.574 332.014 L 348.14 332.394 L 348.647 332.71 L 349.214 333.09 L 349.716 333.407 L 350.287 333.66 L 350.79 333.977 L 351.356 334.231 L 351.927 334.484 L 352.493 334.738 L 353.06 334.928 L 353.63 335.181 L 354.259 335.371 L 354.89 335.561 L 355.456 335.751 L 356.09 335.878 L 356.719 336.005 L 357.349 336.131 L 358.042 336.195 L 358.675 336.321 L 359.306 336.321 L 359.998 336.384 L 360.629 336.384 L 361.385 336.384 L 362.078 336.321 L 362.712 336.195 L 363.278 336.068 L 363.845 335.941 L 364.351 335.751 L 364.792 335.498 L 365.298 335.118 L 365.674 334.674 L 365.928 334.167 L 366.119 333.597 L 366.181 332.963 L 366.181 332.837 L 366.119 332.077 L 365.865 331.443 L 365.548 331 L 365.108 330.619 L 364.601 330.239 L 364.098 329.986 L 363.532 329.733 L 362.898 329.479 L 362.142 329.163 L 361.701 329.036 L 361.199 328.909 L 360.629 328.718 L 360.062 328.592 L 359.432 328.402 L 358.798 328.275 L 358.106 328.085 L 357.475 327.959 L 356.782 327.769 L 356.153 327.642 L 355.519 327.452 L 354.89 327.325 L 354.259 327.135 L 353.689 326.945 L 353.06 326.818 L 352.493 326.628 L 351.927 326.438 L 351.356 326.248 L 350.663 325.994 L 350.034 325.741 L 349.403 325.488 L 348.77 325.234 L 348.204 324.917 L 347.574 324.601 L 347.067 324.284 L 346.5 323.968 L 345.997 323.587 L 345.49 323.271 L 345.051 322.89 L 344.608 322.447 L 344.167 322.003 L 343.787 321.559 L 343.411 321.116 L 343.094 320.673 L 342.781 320.166 L 342.464 319.596 L 342.211 319.157 L 342.021 318.649 L 341.835 318.079 L 341.645 317.572 L 341.517 316.938 L 341.391 316.368 L 341.327 315.735 L 341.264 315.101 L 341.201 314.405 L 341.201 313.707 L 341.201 313.581 L 341.201 312.947 L 341.264 312.314 L 341.327 311.744 L 341.391 311.11 L 341.517 310.54 L 341.645 309.97 L 341.835 309.399 L 341.961 308.829 L 342.211 308.259 L 342.464 307.689 L 342.717 307.119 L 343.031 306.548 L 343.347 305.979 L 343.724 305.471 L 344.105 304.965 L 344.544 304.458 L 344.987 304.015 L 345.427 303.507 L 345.934 303.064 L 346.374 302.747 L 346.88 302.367 L 347.384 301.987 L 347.887 301.67 L 348.457 301.354 L 349.024 301.1 L 349.59 300.783 L 350.16 300.53 L 350.79 300.339 L 351.419 300.086 L 351.99 299.896 L 352.493 299.769 L 353.06 299.643 L 353.63 299.516 L 354.259 299.39 L 354.826 299.262 L 355.456 299.2 L 356.09 299.136 L 356.719 299.072 L 357.349 299.009 L 357.979 299.009 L 358.675 299.009 L 359.369 299.009 L 360.062 299.009 L 360.755 299.072 L 361.448 299.136 L 362.078 299.136 L 362.775 299.2 L 363.404 299.326 L 364.098 299.39 L 364.728 299.516 L 365.298 299.643 L 365.928 299.769 L 366.558 299.896 L 367.124 300.023 L 367.757 300.213 L 368.324 300.403 L 368.891 300.53 L 369.524 300.783 L 370.091 300.973 L 370.657 301.226 L 371.224 301.48 L 371.857 301.734 L 372.424 302.05 L 372.927 302.304 L 373.497 302.621 L 374.064 302.937 L 374.567 303.254 L 375.136 303.635 L 375.64 303.951 L 376.147 304.331 L 376.65 304.712 L 377.153 305.091 L 376.777 305.598 L 376.46 306.105 L 376.083 306.612 L 375.703 307.119 L 375.327 307.689 L 375.01 308.195 L 374.63 308.703 L 374.253 309.21 L 373.937 309.716 L 373.56 310.224 L 373.18 310.73 L 372.863 311.237 L 372.487 311.807 L 372.106 312.314 L 371.73 312.821 L 371.414 313.327 L 371.037 313.834 L 370.53 313.454 L 369.964 313.137 L 369.46 312.821 L 368.954 312.44 L 368.388 312.187 L 367.88 311.87 L 367.314 311.616 L 366.811 311.363 L 366.241 311.11 L 365.738 310.857 L 365.172 310.667 L 364.665 310.413 L 363.971 310.224 L 363.341 310.033 L 362.712 309.843 L 362.078 309.716 L 361.448 309.59 L 360.819 309.463 L 360.189 309.399 L 359.555 309.336 L 358.989 309.272 L 358.359 309.272 L 357.603 309.272 L 356.909 309.399 L 356.276 309.526 L 355.709 309.653 L 355.206 309.906 L 354.763 310.159 L 354.196 310.667 L 353.816 311.237 L 353.567 311.807 L 353.503 312.44 L 353.503 312.568 L 353.567 313.391 L 353.879 314.088 L 354.133 314.468 L 354.572 314.912 L 355.143 315.228 L 355.646 315.545 L 356.276 315.798 L 356.972 316.052 L 357.729 316.305 L 358.232 316.432 L 358.735 316.622 L 359.306 316.748 L 359.872 316.938 L 360.501 317.066 L 361.199 317.256 L 361.892 317.445 L 362.585 317.636 L 363.278 317.762 L 363.908 317.952 L 364.601 318.142 L 365.235 318.269 L 365.865 318.459 L 366.495 318.649 L 367.061 318.839 L 367.695 319.029 L 368.261 319.219 L 368.827 319.41 L 369.524 319.659 L 370.154 319.976 L 370.783 320.229 L 371.414 320.546 L 371.984 320.863 L 372.551 321.18 L 373.053 321.496 L 373.56 321.877 L 374.064 322.193 L 374.567 322.637 L 375.074 323.08 L 375.513 323.587 L 375.956 324.03 L 376.333 324.538 L 376.713 325.107 L 377.026 325.614 L 377.343 326.185 L 377.596 326.692 L 377.786 327.261 L 377.973 327.832 L 378.099 328.402 L 378.226 329.036 L 378.352 329.67 L 378.416 330.303 L 378.48 331 L 378.48 331.696 L 378.48 331.823 L 378.48 332.52 L 378.416 333.217 Z  M 334.183 345.885 L 333.55 345.885 L 332.92 345.885 L 332.291 345.885 L 331.661 345.885 L 331.027 345.885 L 330.397 345.885 L 329.768 345.885 L 329.137 345.885 L 328.441 345.885 L 327.811 345.885 L 327.181 345.885 L 326.552 345.885 L 325.917 345.885 L 325.288 345.885 L 324.658 345.885 L 324.028 345.885 L 323.394 345.885 L 322.765 345.885 L 322.135 345.885 L 321.505 345.885 L 320.875 345.885 L 320.242 345.885 L 319.612 345.885 L 318.983 345.885 L 318.352 345.885 L 317.718 345.885 L 317.089 345.885 L 316.459 345.885 L 315.766 345.885 L 315.133 345.885 L 314.502 345.885 L 313.873 345.885 L 313.243 345.885 L 312.61 345.885 L 311.98 345.885 L 311.35 345.885 L 310.72 345.885 L 310.086 345.885 L 309.457 345.885 L 308.827 345.885 L 308.197 345.885 L 307.563 345.885 L 306.934 345.885 L 306.304 345.885 L 305.674 345.885 L 305.041 345.885 L 304.41 345.885 L 303.717 345.885 L 303.088 345.885 L 302.458 345.885 L 301.824 345.885 L 301.194 345.885 L 300.564 345.885 L 299.935 345.885 L 299.302 345.885 L 298.672 345.885 L 298.042 345.885 L 298.042 345.251 L 298.042 344.617 L 298.042 343.984 L 298.042 343.354 L 298.042 342.72 L 298.042 342.086 L 298.042 341.453 L 298.042 340.82 L 298.042 340.186 L 298.042 339.552 L 298.042 338.919 L 298.042 338.285 L 298.042 337.651 L 298.042 337.018 L 298.042 336.384 L 298.042 335.751 L 298.042 335.118 L 298.042 334.484 L 298.042 333.914 L 298.042 333.28 L 298.042 332.647 L 298.042 332.014 L 298.042 331.38 L 298.042 330.746 L 298.042 330.113 L 298.042 329.479 L 298.042 328.845 L 298.042 328.212 L 298.042 327.579 L 298.042 326.945 L 298.042 326.312 L 298.042 325.678 L 298.042 325.045 L 298.042 324.411 L 298.042 323.777 L 298.042 323.144 L 298.042 322.51 L 298.042 321.877 L 298.042 321.243 L 298.042 320.609 L 298.042 319.976 L 298.042 319.346 L 298.042 318.713 L 298.042 318.079 L 298.042 317.445 L 298.042 316.812 L 298.042 316.179 L 298.042 315.545 L 298.042 314.912 L 298.042 314.278 L 298.042 313.644 L 298.042 313.011 L 298.042 312.377 L 298.042 311.744 L 298.042 311.173 L 298.042 310.54 L 298.042 309.906 L 298.042 309.272 L 298.042 308.639 L 298.042 308.005 L 298.042 307.372 L 298.042 306.738 L 298.042 306.105 L 298.042 305.471 L 298.042 304.838 L 298.042 304.204 L 298.042 303.57 L 298.042 302.937 L 298.042 302.304 L 298.042 301.67 L 298.042 301.037 L 298.042 300.403 L 298.042 299.769 L 298.672 299.769 L 299.302 299.769 L 299.935 299.769 L 300.564 299.769 L 301.194 299.769 L 301.824 299.769 L 302.458 299.769 L 303.088 299.769 L 303.717 299.769 L 304.348 299.769 L 304.981 299.769 L 305.611 299.769 L 306.24 299.769 L 306.87 299.769 L 307.44 299.769 L 308.07 299.769 L 308.7 299.769 L 309.33 299.769 L 309.963 299.769 L 310.593 299.769 L 311.223 299.769 L 311.853 299.769 L 312.486 299.769 L 313.116 299.769 L 313.745 299.769 L 314.376 299.769 L 315.01 299.769 L 315.639 299.769 L 316.269 299.769 L 316.899 299.769 L 317.533 299.769 L 318.163 299.769 L 318.792 299.769 L 319.421 299.769 L 320.052 299.769 L 320.686 299.769 L 321.315 299.769 L 321.945 299.769 L 322.575 299.769 L 323.208 299.769 L 323.838 299.769 L 324.468 299.769 L 325.097 299.769 L 325.668 299.769 L 326.298 299.769 L 326.928 299.769 L 327.558 299.769 L 328.191 299.769 L 328.821 299.769 L 329.45 299.769 L 330.08 299.769 L 330.714 299.769 L 331.344 299.769 L 331.973 299.769 L 332.604 299.769 L 333.237 299.769 L 333.867 299.769 L 334.497 299.769 L 334.497 300.403 L 334.497 300.973 L 334.497 301.606 L 334.497 302.24 L 334.497 302.874 L 334.497 303.444 L 334.497 304.078 L 334.497 304.712 L 334.497 305.281 L 334.497 305.915 L 334.497 306.548 L 334.497 307.119 L 334.497 307.752 L 334.497 308.386 L 334.497 309.019 L 334.497 309.59 L 334.497 310.224 L 333.867 310.224 L 333.237 310.224 L 332.604 310.224 L 331.973 310.224 L 331.344 310.224 L 330.714 310.224 L 330.144 310.224 L 329.514 310.224 L 328.884 310.224 L 328.254 310.224 L 327.621 310.224 L 326.991 310.224 L 326.361 310.224 L 325.731 310.224 L 325.097 310.224 L 324.468 310.224 L 323.838 310.224 L 323.208 310.224 L 322.575 310.224 L 322.009 310.224 L 321.378 310.224 L 320.749 310.224 L 320.115 310.224 L 319.486 310.224 L 318.855 310.224 L 318.226 310.224 L 317.592 310.224 L 316.962 310.224 L 316.333 310.224 L 315.703 310.224 L 315.069 310.224 L 314.439 310.224 L 313.873 310.224 L 313.243 310.224 L 312.61 310.224 L 311.98 310.224 L 311.35 310.224 L 310.72 310.224 L 310.086 310.224 L 310.086 310.857 L 310.086 311.49 L 310.086 312.123 L 310.086 312.757 L 310.086 313.391 L 310.086 313.961 L 310.086 314.594 L 310.086 315.228 L 310.086 315.861 L 310.086 316.495 L 310.086 317.128 L 310.086 317.762 L 310.72 317.762 L 311.35 317.762 L 311.98 317.762 L 312.61 317.762 L 313.243 317.762 L 313.873 317.762 L 314.502 317.762 L 315.133 317.762 L 315.703 317.762 L 316.333 317.762 L 316.962 317.762 L 317.592 317.762 L 318.226 317.762 L 318.855 317.762 L 319.486 317.762 L 320.115 317.762 L 320.749 317.762 L 321.378 317.762 L 322.009 317.762 L 322.638 317.762 L 323.271 317.762 L 323.901 317.762 L 324.531 317.762 L 325.162 317.762 L 325.795 317.762 L 326.424 317.762 L 326.991 317.762 L 327.621 317.762 L 328.254 317.762 L 328.884 317.762 L 329.514 317.762 L 330.144 317.762 L 330.777 317.762 L 331.407 317.762 L 332.037 317.762 L 332.037 318.395 L 332.037 318.966 L 332.037 319.596 L 332.037 320.229 L 332.037 320.8 L 332.037 321.433 L 332.037 322.067 L 332.037 322.637 L 332.037 323.271 L 332.037 323.904 L 332.037 324.538 L 332.037 325.107 L 332.037 325.741 L 332.037 326.374 L 332.037 326.945 L 332.037 327.579 L 331.407 327.579 L 330.777 327.579 L 330.144 327.579 L 329.514 327.579 L 328.884 327.579 L 328.254 327.579 L 327.621 327.579 L 326.991 327.579 L 326.424 327.579 L 325.795 327.579 L 325.162 327.579 L 324.531 327.579 L 323.901 327.579 L 323.271 327.579 L 322.638 327.579 L 322.009 327.579 L 321.378 327.579 L 320.749 327.579 L 320.115 327.579 L 319.486 327.579 L 318.855 327.579 L 318.226 327.579 L 317.592 327.579 L 316.962 327.579 L 316.333 327.579 L 315.703 327.579 L 315.133 327.579 L 314.502 327.579 L 313.873 327.579 L 313.243 327.579 L 312.61 327.579 L 311.98 327.579 L 311.35 327.579 L 310.72 327.579 L 310.086 327.579 L 310.086 328.212 L 310.086 328.909 L 310.086 329.542 L 310.086 330.176 L 310.086 330.873 L 310.086 331.507 L 310.086 332.14 L 310.086 332.837 L 310.086 333.47 L 310.086 334.104 L 310.086 334.801 L 310.086 335.434 L 310.72 335.434 L 311.35 335.434 L 311.98 335.434 L 312.61 335.434 L 313.243 335.434 L 313.873 335.434 L 314.502 335.434 L 315.133 335.434 L 315.766 335.434 L 316.459 335.434 L 317.089 335.434 L 317.718 335.434 L 318.352 335.434 L 318.983 335.434 L 319.612 335.434 L 320.242 335.434 L 320.875 335.434 L 321.505 335.434 L 322.135 335.434 L 322.765 335.434 L 323.394 335.434 L 324.028 335.434 L 324.658 335.434 L 325.288 335.434 L 325.917 335.434 L 326.552 335.434 L 327.181 335.434 L 327.811 335.434 L 328.441 335.434 L 329.137 335.434 L 329.768 335.434 L 330.397 335.434 L 331.027 335.434 L 331.661 335.434 L 332.291 335.434 L 332.92 335.434 L 333.55 335.434 L 334.183 335.434 L 334.813 335.434 L 334.813 336.068 L 334.813 336.638 L 334.813 337.272 L 334.813 337.905 L 334.813 338.539 L 334.813 339.109 L 334.813 339.742 L 334.813 340.376 L 334.813 340.947 L 334.813 341.58 L 334.813 342.213 L 334.813 342.784 L 334.813 343.414 L 334.813 344.047 L 334.813 344.68 L 334.813 345.251 L 334.813 345.885 L 334.183 345.885 Z  M 288.098 345.885 L 287.469 345.885 L 286.838 345.885 L 286.142 345.885 L 285.513 345.885 L 284.882 345.885 L 284.253 345.885 L 283.619 345.885 L 282.989 345.885 L 282.296 345.885 L 281.666 345.885 L 281.036 345.885 L 280.403 345.885 L 279.773 345.885 L 279.144 345.885 L 278.45 345.885 L 277.816 345.885 L 277.187 345.885 L 276.556 345.885 L 276.556 345.251 L 276.556 344.617 L 276.556 343.984 L 276.556 343.35 L 276.556 342.713 L 276.556 342.079 L 276.556 341.446 L 276.556 340.812 L 276.556 340.178 L 276.556 339.545 L 276.556 338.911 L 276.556 338.275 L 276.556 337.641 L 276.556 337.007 L 276.556 336.374 L 276.556 335.74 L 276.556 335.102 L 276.556 334.469 L 276.556 333.835 L 276.556 333.202 L 276.556 332.568 L 276.556 331.935 L 276.556 331.298 L 276.556 330.665 L 276.556 330.031 L 276.556 329.397 L 276.556 328.764 L 276.556 328.13 L 276.556 327.492 L 276.556 326.859 L 276.556 326.225 L 276.556 325.592 L 276.556 324.959 L 276.556 324.325 L 276.556 323.688 L 276.556 323.055 L 276.556 322.421 L 276.556 321.787 L 276.556 321.154 L 276.556 320.516 L 276.556 319.883 L 276.556 319.249 L 276.556 318.615 L 276.241 319.122 L 275.864 319.696 L 275.547 320.203 L 275.171 320.711 L 274.854 321.28 L 274.473 321.787 L 274.161 322.294 L 273.844 322.868 L 273.468 323.375 L 273.15 323.881 L 272.771 324.389 L 272.458 324.963 L 272.078 325.469 L 271.765 325.976 L 271.447 326.546 L 271.067 327.056 L 270.754 327.564 L 270.374 328.133 L 270.061 328.641 L 269.681 329.147 L 269.368 329.721 L 269.051 330.229 L 268.671 330.735 L 268.358 331.306 L 267.978 331.816 L 267.665 332.322 L 267.285 332.83 L 266.968 333.399 L 266.655 333.91 L 266.275 334.417 L 265.962 334.987 L 265.582 335.494 L 265.265 336.001 L 264.889 336.575 L 264.572 337.082 L 264.322 337.082 L 263.942 336.512 L 263.625 336.001 L 263.248 335.43 L 262.932 334.924 L 262.555 334.354 L 262.239 333.843 L 261.863 333.273 L 261.545 332.766 L 261.165 332.196 L 260.852 331.689 L 260.472 331.115 L 260.16 330.608 L 259.779 330.038 L 259.462 329.531 L 259.086 328.957 L 258.769 328.451 L 258.393 327.88 L 258.013 327.374 L 257.696 326.8 L 257.32 326.293 L 257.003 325.723 L 256.626 325.216 L 256.31 324.642 L 255.933 324.135 L 255.616 323.565 L 255.236 323.058 L 254.923 322.488 L 254.543 321.977 L 254.23 321.407 L 253.85 320.9 L 253.533 320.33 L 253.157 319.824 L 252.839 319.249 L 252.463 318.742 L 252.463 319.376 L 252.463 320.01 L 252.463 320.643 L 252.463 321.28 L 252.463 321.914 L 252.463 322.547 L 252.463 323.181 L 252.463 323.815 L 252.463 324.452 L 252.463 325.085 L 252.463 325.656 L 252.463 326.289 L 252.463 326.923 L 252.463 327.556 L 252.463 328.193 L 252.463 328.827 L 252.463 329.46 L 252.463 330.094 L 252.463 330.728 L 252.463 331.361 L 252.463 331.998 L 252.463 332.632 L 252.463 333.266 L 252.463 333.899 L 252.463 334.533 L 252.463 335.166 L 252.463 335.804 L 252.463 336.437 L 252.463 337.071 L 252.463 337.704 L 252.463 338.338 L 252.463 338.974 L 252.463 339.545 L 252.463 340.178 L 252.463 340.812 L 252.463 341.446 L 252.463 342.079 L 252.463 342.713 L 252.463 343.35 L 252.463 343.984 L 252.463 344.617 L 252.463 345.251 L 252.463 345.885 L 251.834 345.885 L 251.201 345.885 L 250.57 345.885 L 249.941 345.885 L 249.311 345.885 L 248.678 345.885 L 248.047 345.885 L 247.418 345.885 L 246.787 345.885 L 246.154 345.885 L 245.525 345.885 L 244.894 345.885 L 244.265 345.885 L 243.631 345.885 L 243.002 345.885 L 242.371 345.885 L 241.741 345.885 L 241.108 345.885 L 240.478 345.885 L 240.478 345.251 L 240.478 344.617 L 240.478 343.984 L 240.478 343.354 L 240.478 342.72 L 240.478 342.086 L 240.478 341.453 L 240.478 340.82 L 240.478 340.186 L 240.478 339.552 L 240.478 338.919 L 240.478 338.285 L 240.478 337.651 L 240.478 337.018 L 240.478 336.384 L 240.478 335.751 L 240.478 335.118 L 240.478 334.484 L 240.478 333.914 L 240.478 333.28 L 240.478 332.647 L 240.478 332.014 L 240.478 331.38 L 240.478 330.746 L 240.478 330.113 L 240.478 329.479 L 240.478 328.845 L 240.478 328.212 L 240.478 327.579 L 240.478 326.945 L 240.478 326.312 L 240.478 325.678 L 240.478 325.045 L 240.478 324.411 L 240.478 323.777 L 240.478 323.144 L 240.478 322.51 L 240.478 321.877 L 240.478 321.243 L 240.478 320.609 L 240.478 319.976 L 240.478 319.346 L 240.478 318.713 L 240.478 318.079 L 240.478 317.445 L 240.478 316.812 L 240.478 316.179 L 240.478 315.545 L 240.478 314.912 L 240.478 314.278 L 240.478 313.644 L 240.478 313.011 L 240.478 312.377 L 240.478 311.744 L 240.478 311.173 L 240.478 310.54 L 240.478 309.906 L 240.478 309.272 L 240.478 308.639 L 240.478 308.005 L 240.478 307.372 L 240.478 306.738 L 240.478 306.105 L 240.478 305.471 L 240.478 304.838 L 240.478 304.204 L 240.478 303.57 L 240.478 302.937 L 240.478 302.304 L 240.478 301.67 L 240.478 301.037 L 240.478 300.403 L 240.478 299.769 L 241.108 299.769 L 241.741 299.769 L 242.309 299.769 L 242.937 299.769 L 243.568 299.769 L 244.201 299.769 L 244.768 299.769 L 245.397 299.769 L 246.031 299.769 L 246.661 299.769 L 247.228 299.769 L 247.857 299.769 L 248.491 299.769 L 249.121 299.769 L 249.687 299.769 L 250.316 299.769 L 250.95 299.769 L 251.581 299.769 L 252.147 299.769 L 252.776 299.769 L 253.41 299.769 L 253.723 300.277 L 254.04 300.846 L 254.416 301.349 L 254.733 301.92 L 255.05 302.426 L 255.363 302.997 L 255.679 303.5 L 256.057 304.071 L 256.373 304.577 L 256.69 305.084 L 257.003 305.65 L 257.32 306.157 L 257.696 306.727 L 258.013 307.234 L 258.329 307.8 L 258.642 308.307 L 259.023 308.814 L 259.34 309.381 L 259.652 309.887 L 259.969 310.457 L 260.283 310.965 L 260.663 311.531 L 260.979 312.038 L 261.292 312.608 L 261.609 313.111 L 261.922 313.618 L 262.302 314.188 L 262.619 314.695 L 262.932 315.266 L 263.248 315.769 L 263.562 316.339 L 263.942 316.846 L 264.259 317.412 L 264.572 317.919 L 264.889 317.412 L 265.205 316.846 L 265.582 316.339 L 265.898 315.769 L 266.212 315.266 L 266.528 314.695 L 266.905 314.188 L 267.221 313.618 L 267.539 313.111 L 267.851 312.608 L 268.231 312.038 L 268.544 311.531 L 268.862 310.965 L 269.177 310.457 L 269.554 309.887 L 269.871 309.381 L 270.188 308.814 L 270.5 308.307 L 270.818 307.8 L 271.194 307.234 L 271.511 306.727 L 271.827 306.157 L 272.141 305.65 L 272.521 305.084 L 272.834 304.577 L 273.15 304.071 L 273.468 303.5 L 273.844 302.997 L 274.161 302.426 L 274.473 301.92 L 274.79 301.349 L 275.171 300.846 L 275.484 300.277 L 275.8 299.769 L 276.43 299.769 L 277.06 299.769 L 277.63 299.769 L 278.26 299.769 L 278.89 299.769 L 279.519 299.769 L 280.09 299.769 L 280.72 299.769 L 281.349 299.769 L 281.979 299.769 L 282.55 299.769 L 283.179 299.769 L 283.809 299.769 L 284.439 299.769 L 285.009 299.769 L 285.639 299.769 L 286.269 299.769 L 286.899 299.769 L 287.469 299.769 L 288.098 299.769 L 288.728 299.769 L 288.728 300.403 L 288.728 301.037 L 288.728 301.67 L 288.728 302.304 L 288.728 302.937 L 288.728 303.57 L 288.728 304.204 L 288.728 304.838 L 288.728 305.471 L 288.728 306.105 L 288.728 306.738 L 288.728 307.372 L 288.728 308.005 L 288.728 308.639 L 288.728 309.272 L 288.728 309.906 L 288.728 310.54 L 288.728 311.173 L 288.728 311.744 L 288.728 312.377 L 288.728 313.011 L 288.728 313.644 L 288.728 314.278 L 288.728 314.912 L 288.728 315.545 L 288.728 316.179 L 288.728 316.812 L 288.728 317.445 L 288.728 318.079 L 288.728 318.713 L 288.728 319.346 L 288.728 319.976 L 288.728 320.609 L 288.728 321.243 L 288.728 321.877 L 288.728 322.51 L 288.728 323.144 L 288.728 323.777 L 288.728 324.411 L 288.728 325.045 L 288.728 325.678 L 288.728 326.312 L 288.728 326.945 L 288.728 327.579 L 288.728 328.212 L 288.728 328.845 L 288.728 329.479 L 288.728 330.113 L 288.728 330.746 L 288.728 331.38 L 288.728 332.014 L 288.728 332.647 L 288.728 333.28 L 288.728 333.914 L 288.728 334.484 L 288.728 335.118 L 288.728 335.751 L 288.728 336.384 L 288.728 337.018 L 288.728 337.651 L 288.728 338.285 L 288.728 338.919 L 288.728 339.552 L 288.728 340.186 L 288.728 340.82 L 288.728 341.453 L 288.728 342.086 L 288.728 342.72 L 288.728 343.354 L 288.728 343.984 L 288.728 344.617 L 288.728 345.251 L 288.728 345.885 L 288.098 345.885 Z  M 214.917 326.882 L 214.727 326.308 L 214.477 325.674 L 214.223 325.104 L 214.033 324.53 L 213.784 323.96 L 213.531 323.326 L 213.34 322.752 L 213.086 322.182 L 212.838 321.612 L 212.647 321.038 L 212.393 320.405 L 212.207 319.834 L 211.954 319.26 L 211.7 318.69 L 211.511 318.12 L 211.26 317.483 L 211.007 316.912 L 210.817 316.343 L 210.564 315.769 L 210.314 315.135 L 210.124 314.561 L 209.87 313.991 L 209.621 314.561 L 209.432 315.135 L 209.178 315.769 L 208.924 316.343 L 208.738 316.912 L 208.485 317.483 L 208.231 318.12 L 207.982 318.69 L 207.791 319.26 L 207.538 319.834 L 207.284 320.405 L 207.097 321.038 L 206.844 321.612 L 206.591 322.182 L 206.401 322.752 L 206.151 323.326 L 205.898 323.96 L 205.645 324.53 L 205.459 325.104 L 205.205 325.674 L 204.951 326.308 L 204.761 326.882 L 204.512 327.452 L 205.141 327.452 L 205.771 327.452 L 206.401 327.452 L 207.035 327.452 L 207.664 327.452 L 208.294 327.452 L 208.924 327.452 L 209.558 327.452 L 210.124 327.452 L 210.754 327.452 L 211.388 327.452 L 212.017 327.452 L 212.647 327.452 L 213.277 327.452 L 213.907 327.452 L 214.54 327.452 L 215.17 327.452 L 214.917 326.882 Z  M 234.725 345.885 L 234.091 345.885 L 233.524 345.885 L 232.895 345.885 L 232.261 345.885 L 231.632 345.885 L 231.001 345.885 L 230.435 345.885 L 229.801 345.885 L 229.172 345.885 L 228.542 345.885 L 227.912 345.885 L 227.278 345.885 L 226.712 345.885 L 226.082 345.885 L 225.452 345.885 L 224.819 345.885 L 224.189 345.885 L 223.622 345.885 L 222.993 345.885 L 222.359 345.885 L 222.109 345.314 L 221.919 344.744 L 221.666 344.173 L 221.412 343.54 L 221.226 342.973 L 220.973 342.404 L 220.719 341.833 L 220.533 341.263 L 220.28 340.693 L 220.026 340.123 L 219.837 339.552 L 219.586 338.919 L 219.333 338.349 L 219.143 337.779 L 218.889 337.208 L 218.259 337.208 L 217.63 337.208 L 217 337.208 L 216.37 337.208 L 215.8 337.208 L 215.17 337.208 L 214.54 337.208 L 213.907 337.208 L 213.277 337.208 L 212.647 337.208 L 212.017 337.208 L 211.388 337.208 L 210.754 337.208 L 210.124 337.208 L 209.558 337.208 L 208.924 337.208 L 208.294 337.208 L 207.664 337.208 L 207.035 337.208 L 206.401 337.208 L 205.771 337.208 L 205.141 337.208 L 204.512 337.208 L 203.882 337.208 L 203.311 337.208 L 202.682 337.208 L 202.052 337.208 L 201.418 337.208 L 200.788 337.208 L 200.539 337.779 L 200.349 338.349 L 200.095 338.919 L 199.842 339.552 L 199.656 340.123 L 199.403 340.693 L 199.149 341.263 L 198.959 341.833 L 198.709 342.404 L 198.456 342.973 L 198.266 343.54 L 198.015 344.173 L 197.762 344.744 L 197.572 345.314 L 197.319 345.885 L 196.689 345.885 L 196.059 345.885 L 195.43 345.885 L 194.796 345.885 L 194.166 345.885 L 193.473 345.885 L 192.843 345.885 L 192.213 345.885 L 191.58 345.885 L 190.95 345.885 L 190.32 345.885 L 189.69 345.885 L 189.056 345.885 L 188.427 345.885 L 187.798 345.885 L 187.104 345.885 L 186.471 345.885 L 185.841 345.885 L 185.211 345.885 L 184.581 345.885 L 184.83 345.314 L 185.084 344.744 L 185.337 344.173 L 185.587 343.54 L 185.777 342.973 L 186.031 342.404 L 186.284 341.833 L 186.533 341.263 L 186.787 340.693 L 187.041 340.059 L 187.29 339.489 L 187.544 338.919 L 187.733 338.349 L 187.987 337.779 L 188.237 337.208 L 188.49 336.575 L 188.743 336.005 L 188.993 335.434 L 189.247 334.864 L 189.5 334.294 L 189.69 333.724 L 189.94 333.09 L 190.193 332.52 L 190.447 331.95 L 190.696 331.38 L 190.95 330.809 L 191.204 330.239 L 191.453 329.605 L 191.643 329.036 L 191.897 328.465 L 192.15 327.895 L 192.4 327.325 L 192.653 326.755 L 192.906 326.121 L 193.156 325.551 L 193.409 324.981 L 193.599 324.411 L 193.853 323.841 L 194.103 323.271 L 194.356 322.637 L 194.61 322.067 L 194.859 321.496 L 195.112 320.926 L 195.366 320.356 L 195.556 319.785 L 195.806 319.219 L 196.059 318.586 L 196.312 318.016 L 196.562 317.445 L 196.815 316.875 L 197.069 316.305 L 197.319 315.735 L 197.509 315.101 L 197.762 314.531 L 198.015 313.961 L 198.266 313.391 L 198.519 312.821 L 198.772 312.25 L 199.022 311.616 L 199.275 311.047 L 199.465 310.477 L 199.718 309.906 L 199.969 309.336 L 200.222 308.766 L 200.475 308.133 L 200.725 307.562 L 200.978 306.992 L 201.232 306.422 L 201.418 305.852 L 201.672 305.281 L 201.925 304.648 L 202.179 304.078 L 202.429 303.507 L 202.682 302.937 L 202.935 302.367 L 203.185 301.797 L 203.375 301.163 L 203.628 300.593 L 203.882 300.023 L 204.132 299.453 L 204.761 299.453 L 205.332 299.453 L 205.961 299.453 L 206.591 299.453 L 207.225 299.453 L 207.791 299.453 L 208.42 299.453 L 209.051 299.453 L 209.685 299.453 L 210.251 299.453 L 210.88 299.453 L 211.511 299.453 L 212.144 299.453 L 212.711 299.453 L 213.34 299.453 L 213.97 299.453 L 214.604 299.453 L 215.17 299.453 L 215.8 299.453 L 216.053 300.023 L 216.307 300.593 L 216.557 301.163 L 216.81 301.797 L 217 302.367 L 217.249 302.937 L 217.503 303.507 L 217.756 304.078 L 218.01 304.648 L 218.259 305.281 L 218.513 305.852 L 218.767 306.422 L 218.953 306.992 L 219.206 307.562 L 219.46 308.133 L 219.714 308.766 L 219.963 309.336 L 220.216 309.906 L 220.47 310.477 L 220.719 311.047 L 220.909 311.616 L 221.162 312.25 L 221.412 312.821 L 221.666 313.391 L 221.919 313.961 L 222.173 314.531 L 222.422 315.101 L 222.675 315.735 L 222.866 316.305 L 223.115 316.875 L 223.368 317.445 L 223.622 318.016 L 223.876 318.586 L 224.125 319.219 L 224.379 319.785 L 224.632 320.356 L 224.819 320.926 L 225.072 321.496 L 225.325 322.067 L 225.575 322.637 L 225.828 323.271 L 226.082 323.841 L 226.336 324.411 L 226.585 324.981 L 226.775 325.551 L 227.028 326.121 L 227.278 326.755 L 227.531 327.325 L 227.785 327.895 L 228.038 328.465 L 228.288 329.036 L 228.542 329.605 L 228.731 330.239 L 228.982 330.809 L 229.235 331.38 L 229.488 331.95 L 229.738 332.52 L 229.991 333.09 L 230.245 333.724 L 230.499 334.294 L 230.685 334.864 L 230.938 335.434 L 231.192 336.005 L 231.441 336.575 L 231.694 337.208 L 231.948 337.779 L 232.201 338.349 L 232.451 338.919 L 232.641 339.489 L 232.895 340.059 L 233.144 340.693 L 233.397 341.263 L 233.65 341.833 L 233.901 342.404 L 234.154 342.973 L 234.407 343.54 L 234.598 344.173 L 234.847 344.744 L 235.101 345.314 L 235.354 345.885 L 234.725 345.885 Z  M 179.468 339.995 L 178.962 340.376 L 178.521 340.693 L 178.015 341.073 L 177.511 341.39 L 177.008 341.77 L 176.502 342.086 L 175.998 342.404 L 175.428 342.72 L 174.861 343.037 L 174.295 343.354 L 173.725 343.603 L 173.158 343.92 L 172.529 344.173 L 171.963 344.427 L 171.329 344.68 L 170.763 344.934 L 170.195 345.124 L 169.626 345.314 L 169.059 345.505 L 168.429 345.694 L 167.863 345.885 L 167.229 346.011 L 166.663 346.138 L 166.033 346.264 L 165.4 346.391 L 164.77 346.454 L 164.076 346.518 L 163.447 346.582 L 162.753 346.644 L 162.12 346.708 L 161.427 346.771 L 160.734 346.771 L 160.04 346.771 L 159.347 346.771 L 158.713 346.771 L 158.084 346.708 L 157.391 346.644 L 156.761 346.582 L 156.131 346.518 L 155.497 346.454 L 154.868 346.328 L 154.237 346.201 L 153.671 346.074 L 153.038 345.948 L 152.471 345.758 L 151.842 345.631 L 151.272 345.44 L 150.705 345.187 L 150.138 344.997 L 149.509 344.744 L 148.939 344.491 L 148.372 344.238 L 147.806 343.984 L 147.235 343.667 L 146.733 343.354 L 146.166 343.037 L 145.659 342.72 L 145.156 342.404 L 144.649 342.023 L 144.146 341.643 L 143.642 341.263 L 143.199 340.883 L 142.76 340.503 L 142.316 340.059 L 141.876 339.68 L 141.433 339.236 L 140.993 338.792 L 140.613 338.349 L 140.236 337.842 L 139.856 337.398 L 139.539 336.892 L 139.163 336.384 L 138.847 335.878 L 138.533 335.371 L 138.217 334.801 L 137.9 334.294 L 137.651 333.724 L 137.397 333.154 L 137.144 332.583 L 136.894 332.014 L 136.704 331.507 L 136.45 330.936 L 136.323 330.366 L 136.137 329.796 L 136.01 329.163 L 135.82 328.592 L 135.694 327.959 L 135.63 327.389 L 135.503 326.755 L 135.441 326.185 L 135.376 325.551 L 135.317 324.917 L 135.254 324.284 L 135.254 323.587 L 135.254 322.953 L 135.254 322.827 L 135.254 322.193 L 135.317 321.496 L 135.317 320.863 L 135.376 320.229 L 135.441 319.533 L 135.567 318.903 L 135.63 318.269 L 135.757 317.699 L 135.947 317.066 L 136.074 316.432 L 136.26 315.861 L 136.45 315.228 L 136.64 314.658 L 136.894 314.024 L 137.144 313.454 L 137.397 312.884 L 137.651 312.314 L 137.9 311.744 L 138.217 311.173 L 138.533 310.667 L 138.847 310.159 L 139.163 309.653 L 139.48 309.146 L 139.856 308.639 L 140.236 308.133 L 140.613 307.626 L 140.993 307.181 L 141.433 306.738 L 141.813 306.295 L 142.253 305.852 L 142.696 305.408 L 143.136 305.028 L 143.642 304.584 L 144.083 304.204 L 144.586 303.824 L 145.092 303.507 L 145.596 303.127 L 146.103 302.811 L 146.605 302.494 L 147.172 302.177 L 147.742 301.86 L 148.308 301.544 L 148.875 301.29 L 149.445 301.037 L 150.075 300.72 L 150.578 300.53 L 151.208 300.339 L 151.779 300.086 L 152.345 299.959 L 152.911 299.769 L 153.544 299.643 L 154.111 299.453 L 154.741 299.326 L 155.371 299.262 L 156.004 299.136 L 156.634 299.072 L 157.263 299.009 L 157.894 298.946 L 158.528 298.882 L 159.221 298.882 L 159.85 298.882 L 160.543 298.882 L 161.236 298.882 L 161.934 298.946 L 162.627 299.009 L 163.257 299.009 L 163.886 299.072 L 164.579 299.2 L 165.15 299.262 L 165.779 299.39 L 166.41 299.516 L 166.979 299.643 L 167.545 299.769 L 168.113 299.896 L 168.683 300.086 L 169.249 300.213 L 169.752 300.403 L 170.323 300.593 L 170.889 300.846 L 171.455 301.1 L 172.026 301.354 L 172.592 301.67 L 173.158 301.924 L 173.666 302.24 L 174.232 302.557 L 174.735 302.874 L 175.305 303.191 L 175.808 303.57 L 176.312 303.888 L 176.818 304.268 L 177.321 304.648 L 177.828 305.091 L 178.331 305.471 L 177.951 305.979 L 177.511 306.422 L 177.131 306.928 L 176.692 307.435 L 176.312 307.942 L 175.935 308.386 L 175.491 308.892 L 175.115 309.399 L 174.735 309.843 L 174.295 310.35 L 173.915 310.857 L 173.475 311.363 L 173.095 311.807 L 172.719 312.314 L 172.276 312.821 L 171.898 313.327 L 171.455 313.771 L 171.079 314.278 L 170.572 313.898 L 170.069 313.454 L 169.562 313.137 L 169.059 312.757 L 168.556 312.44 L 168.049 312.123 L 167.545 311.807 L 166.979 311.49 L 166.473 311.237 L 165.969 310.983 L 165.463 310.793 L 164.896 310.603 L 164.33 310.413 L 163.76 310.286 L 163.13 310.159 L 162.5 310.033 L 161.87 309.97 L 161.177 309.906 L 160.48 309.843 L 159.787 309.843 L 159.157 309.843 L 158.528 309.906 L 157.957 309.97 L 157.328 310.096 L 156.761 310.224 L 156.191 310.413 L 155.625 310.603 L 155.058 310.857 L 154.491 311.11 L 153.984 311.426 L 153.482 311.744 L 152.975 312.061 L 152.535 312.44 L 152.091 312.821 L 151.652 313.201 L 151.272 313.644 L 150.832 314.088 L 150.452 314.594 L 150.138 315.038 L 149.821 315.545 L 149.509 316.115 L 149.192 316.622 L 148.939 317.192 L 148.749 317.762 L 148.499 318.333 L 148.308 318.966 L 148.182 319.596 L 148.055 320.166 L 147.928 320.863 L 147.865 321.496 L 147.806 322.13 L 147.806 322.827 L 147.806 322.953 L 147.806 323.587 L 147.865 324.221 L 147.928 324.791 L 147.992 325.425 L 148.118 325.994 L 148.246 326.565 L 148.372 327.135 L 148.562 327.705 L 148.749 328.212 L 149.002 328.845 L 149.255 329.416 L 149.568 329.986 L 149.885 330.493 L 150.202 331 L 150.578 331.507 L 150.958 331.95 L 151.398 332.394 L 151.779 332.837 L 152.218 333.217 L 152.725 333.597 L 153.228 333.977 L 153.731 334.294 L 154.237 334.611 L 154.805 334.864 L 155.371 335.118 L 155.94 335.371 L 156.571 335.561 L 157.2 335.751 L 157.834 335.878 L 158.464 336.005 L 159.094 336.068 L 159.787 336.131 L 160.48 336.131 L 161.236 336.131 L 161.934 336.068 L 162.627 336.005 L 163.257 335.941 L 163.886 335.814 L 164.52 335.688 L 165.15 335.498 L 165.716 335.371 L 166.283 335.118 L 166.79 334.864 L 167.356 334.611 L 167.799 334.358 L 168.303 334.04 L 168.303 333.407 L 168.303 332.774 L 168.303 332.14 L 168.303 331.507 L 168.303 330.809 L 168.303 330.176 L 168.303 329.542 L 168.303 328.909 L 168.303 328.275 L 167.673 328.275 L 167.103 328.275 L 166.473 328.275 L 165.843 328.275 L 165.213 328.275 L 164.643 328.275 L 164.013 328.275 L 163.383 328.275 L 162.753 328.275 L 162.184 328.275 L 161.554 328.275 L 160.924 328.275 L 160.294 328.275 L 159.724 328.275 L 159.094 328.275 L 159.094 327.642 L 159.094 327.072 L 159.094 326.438 L 159.094 325.805 L 159.094 325.171 L 159.094 324.601 L 159.094 323.968 L 159.094 323.334 L 159.094 322.7 L 159.094 322.13 L 159.094 321.496 L 159.094 320.863 L 159.094 320.229 L 159.094 319.659 L 159.094 319.029 L 159.724 319.029 L 160.357 319.029 L 160.987 319.029 L 161.616 319.029 L 162.247 319.029 L 162.876 319.029 L 163.51 319.029 L 164.14 319.029 L 164.77 319.029 L 165.4 319.029 L 166.033 319.029 L 166.663 319.029 L 167.292 319.029 L 167.922 319.029 L 168.556 319.029 L 169.186 319.029 L 169.816 319.029 L 170.445 319.029 L 171.079 319.029 L 171.709 319.029 L 172.339 319.029 L 172.968 319.029 L 173.601 319.029 L 174.232 319.029 L 174.861 319.029 L 175.491 319.029 L 176.125 319.029 L 176.755 319.029 L 177.385 319.029 L 178.015 319.029 L 178.648 319.029 L 179.277 319.029 L 179.908 319.029 L 179.908 319.659 L 179.908 320.292 L 179.908 320.926 L 179.908 321.496 L 179.908 322.13 L 179.908 322.763 L 179.908 323.397 L 179.908 324.03 L 179.908 324.664 L 179.908 325.234 L 179.908 325.868 L 179.908 326.502 L 179.908 327.135 L 179.908 327.769 L 179.908 328.402 L 179.908 329.036 L 179.908 329.605 L 179.908 330.239 L 179.908 330.873 L 179.908 331.507 L 179.908 332.14 L 179.908 332.774 L 179.908 333.407 L 179.908 333.977 L 179.908 334.611 L 179.908 335.245 L 179.908 335.878 L 179.908 336.512 L 179.908 337.145 L 179.908 337.716 L 179.908 338.349 L 179.908 338.982 L 179.908 339.616 L 179.468 339.995 Z " fill="rgb(255,255,255)"/></g><g><path d=" M 159.183 195.428 L 186.519 195.428 L 186.519 174.283 L 159.183 174.283 L 159.183 131.116 L 187.607 131.116 L 187.607 109.971 L 135.97 109.971 L 135.97 262.576 L 188.04 262.576 L 188.04 241.431 L 159.183 241.431 L 159.183 195.428 Z " fill="rgb(255,255,255)"/></g><g><path d=" M 354.983 200.009 L 354.983 234.455 C 354.983 240.559 352.161 243.392 346.306 243.392 L 341.965 243.392 C 335.891 243.392 333.069 240.559 333.069 234.455 L 333.069 138.092 C 333.069 131.988 335.891 129.156 341.965 129.156 L 345.87 129.156 C 351.729 129.156 354.55 131.988 354.55 138.092 L 354.55 167.962 L 377.328 167.962 L 377.328 136.784 C 377.328 117.819 368.216 108.662 349.344 108.662 L 338.059 108.662 C 319.187 108.662 309.855 118.035 309.855 137.004 L 309.855 235.543 C 309.855 254.512 319.187 263.884 338.059 263.884 L 349.56 263.884 C 368.436 263.884 377.764 254.512 377.764 235.543 L 377.764 200.009 L 354.983 200.009 Z " fill="rgb(255,255,255)"/></g><path d=" M 274.37 262.577 L 297.587 262.577 L 297.587 109.971 L 274.37 109.971 L 274.37 262.577 Z " fill="rgb(255,255,255)"/><g><path d=" M 240.683 177.771 C 240.683 183.876 237.866 186.712 232.008 186.712 L 222.46 186.712 L 222.46 130.464 L 232.008 130.464 C 237.866 130.464 240.683 133.297 240.683 139.4 L 240.683 177.771 Z  M 235.694 109.97 L 199.246 109.97 L 199.246 262.577 L 222.46 262.577 L 222.46 207.201 L 235.694 207.201 C 254.569 207.201 263.897 197.828 263.897 178.863 L 263.897 138.312 C 263.897 119.344 254.569 109.97 235.694 109.97 Z " fill="rgb(255,255,255)"/></g><g><path d=" M 190.734 400.563 L 323.626 400.563 L 255.795 422.931 L 190.734 400.563 Z " fill-rule="evenodd" fill="rgb(255,255,255)"/></g></g></g></g></g></g></svg>