<?xml version="1.0" encoding="UTF-8" standalone="no"?>
<!DOCTYPE svg PUBLIC "-//W3C//DTD SVG 1.1//EN" "http://www.w3.org/Graphics/SVG/1.1/DTD/svg11.dtd">
<svg width="100%" height="100%" viewBox="0 0 1000 1000" version="1.1" xmlns="http://www.w3.org/2000/svg" xmlns:xlink="http://www.w3.org/1999/xlink" xml:space="preserve" xmlns:serif="http://www.serif.com/" style="fill-rule:evenodd;clip-rule:evenodd;stroke-linejoin:round;stroke-miterlimit:2;">
    <g id="Logo---Transparent" serif:id="Logo - Transparent" transform="matrix(3.50877,0,0,3.50877,-67.4403,-114.035)">
        <g transform="matrix(0.251419,0,0,0.251419,36.011,47.3455)">
            <g transform="matrix(0.49435,0.49435,-0.556777,0.556777,565.973,-204.145)">
                <path d="M865,312.5C865,277.453 832.954,249 793.481,249L218.519,249C179.046,249 147,277.453 147,312.5L147,376L865,376L865,312.5Z" style="fill:rgb(162,87,237);"/>
            </g>
            <g transform="matrix(0.493218,-0.493218,0.556777,0.556777,-65.8496,295.732)">
                <path d="M865,312.5C865,277.453 832.88,249 793.317,249L218.683,249C179.12,249 147,277.453 147,312.5C147,347.547 179.12,376 218.683,376L793.317,376C832.88,376 865,347.547 865,312.5Z" style="fill:rgb(162,87,237);"/>
            </g>
            <g transform="matrix(-0.493552,-0.493552,0.556777,-0.556777,433.915,927.768)">
                <path d="M865,312.5C865,277.453 832.902,249 793.366,249L218.634,249C179.098,249 147,277.453 147,312.5C147,347.547 179.098,376 218.634,376L793.366,376C832.902,376 865,347.547 865,312.5Z" style="fill:rgb(162,87,237);"/>
            </g>
            <g transform="matrix(-0.160668,0.160668,-0.556777,-0.556777,777.716,716.137)">
                <path d="M865,312.5C865,277.453 766.398,249 644.948,249L147,249L147,376L865,376L865,312.5Z" style="fill:rgb(162,87,237);"/>
            </g>
            <g transform="matrix(-0.171921,0.171921,-0.556777,-0.556777,1018.86,475.471)">
                <path d="M865,249L352.649,249C239.148,249 147,277.453 147,312.5L147,376L865,376L865,249Z" style="fill:rgb(162,87,237);"/>
            </g>
        </g>
        <g transform="matrix(0.251419,0,0,0.251419,36.011,49.2905)">
            <g transform="matrix(0.493552,0.493552,-0.556777,0.556777,566.085,79.9677)">
                <path d="M865,312.5C865,277.453 832.902,249 793.366,249L218.634,249C179.098,249 147,277.453 147,312.5L147,376L865,376L865,312.5Z" style="fill:rgb(0,219,255);"/>
            </g>
            <g transform="matrix(0.160809,-0.160809,0.556777,0.556777,222.263,291.619)">
                <path d="M865,312.5C865,277.453 766.484,249 645.141,249L147,249L147,376L865,376L865,312.5Z" style="fill:rgb(0,219,255);"/>
            </g>
            <g transform="matrix(0.171873,-0.171873,0.556777,0.556777,-18.2731,532.704)">
                <path d="M865,249L352.707,249C239.174,249 147,277.453 147,312.5L147,356.95C147,367.464 174.652,376 208.712,376L865,376L865,249Z" style="fill:rgb(0,219,255);"/>
            </g>
            <g transform="matrix(-0.492819,-0.492819,0.556777,-0.556777,433.096,1211.19)">
                <path d="M865,312.5C865,277.453 832.854,249 793.259,249L218.741,249C179.146,249 147,277.453 147,312.5L147,376L865,376L865,312.5Z" style="fill:rgb(0,219,255);"/>
            </g>
            <g transform="matrix(-0.494044,0.494044,-0.556777,-0.556777,1065.38,711.289)">
                <path d="M865,312.5C865,277.453 832.934,249 793.437,249L218.563,249C179.066,249 147,277.453 147,312.5L147,376L865,376L865,312.5Z" style="fill:rgb(0,219,255);"/>
            </g>
        </g>
    </g>
</svg>
