<?xml version="1.0" encoding="UTF-8" standalone="no"?><!-- Generator: Gravit.io --><svg xmlns="http://www.w3.org/2000/svg" xmlns:xlink="http://www.w3.org/1999/xlink" style="isolation:isolate" viewBox="0 0 512 512" width="512pt" height="512pt"><defs><clipPath id="_clipPath_c6y8qTyvCGsW9z2RMCD2vtQJOGNzl6tv"><rect width="512" height="512"/></clipPath></defs><g clip-path="url(#_clipPath_c6y8qTyvCGsW9z2RMCD2vtQJOGNzl6tv)"><linearGradient id="_lgradient_0" x1="0" y1="0.5" x2="6.123233995736766e-17" y2="1.5" gradientTransform="matrix(405.824,0,0,406.259,53.176,52.87)" gradientUnits="userSpaceOnUse"><stop offset="0%" stop-opacity="1" style="stop-color:rgb(17,29,46)"/><stop offset="21.248%" stop-opacity="1" style="stop-color:rgb(5,24,57)"/><stop offset="40.695%" stop-opacity="1" style="stop-color:rgb(10,27,72)"/><stop offset="58.10999999999999%" stop-opacity="1" style="stop-color:rgb(19,46,98)"/><stop offset="73.76%" stop-opacity="1" style="stop-color:rgb(20,75,126)"/><stop offset="87.279%" stop-opacity="1" style="stop-color:rgb(19,100,151)"/><stop offset="100%" stop-opacity="1" style="stop-color:rgb(19,135,184)"/></linearGradient><path d=" M 61.267 314.428 C 86.362 398.139 163.993 459.13 255.87 459.13 C 368.054 459.13 459 368.183 459 256 C 459 143.815 368.054 52.87 255.87 52.87 C 148.219 52.87 60.133 136.614 53.176 242.505 C 66.322 264.579 71.451 278.231 61.269 314.428 L 61.267 314.428 Z " fill="url(#_lgradient_0)"/><path d=" M 245.407 205.125 C 245.407 205.467 245.407 205.809 245.424 206.129 L 195.718 278.336 C 187.666 277.969 179.586 279.382 171.924 282.538 C 168.547 283.915 165.382 285.606 162.413 287.559 L 53.265 242.627 C 53.266 242.627 50.74 284.177 61.265 315.143 L 138.426 346.981 C 142.301 364.295 154.178 379.482 171.701 386.788 C 200.371 398.766 233.428 385.114 245.354 356.432 C 248.458 348.934 249.905 341.07 249.696 333.224 L 320.818 282.398 C 321.393 282.416 321.986 282.433 322.561 282.433 C 365.123 282.433 399.716 247.735 399.716 205.125 C 399.716 162.512 365.123 127.845 322.561 127.845 C 280.017 127.845 245.407 162.512 245.407 205.125 Z  M 233.481 351.445 C 224.25 373.606 198.783 384.12 176.646 374.896 C 166.434 370.642 158.724 362.848 154.276 353.555 L 179.392 363.964 C 195.718 370.764 214.447 363.022 221.233 346.702 C 228.04 330.365 220.318 311.603 204.001 304.803 L 178.037 294.045 C 188.056 290.244 199.445 290.105 210.087 294.534 C 220.815 298.997 229.139 307.401 233.55 318.142 C 237.962 328.883 237.944 340.739 233.481 351.445 M 322.561 256.628 C 294.228 256.628 271.16 233.525 271.16 205.125 C 271.16 176.748 294.228 153.638 322.561 153.638 C 350.912 153.638 373.98 176.748 373.98 205.125 C 373.98 233.525 350.912 256.628 322.561 256.628 Z  M 284.045 205.047 C 284.045 183.682 301.342 166.354 322.648 166.354 C 343.973 166.354 361.269 183.682 361.269 205.047 C 361.269 226.413 343.973 243.725 322.648 243.725 C 301.342 243.725 284.045 226.413 284.045 205.047 L 284.045 205.047 Z " fill="rgb(255,255,255)"/></g></svg>